G04*
G04 #@! TF.GenerationSoftware,Altium Limited,Altium Designer,21.3.2 (30)*
G04*
G04 Layer_Color=65535*
%FSTAX24Y24*%
%MOIN*%
G70*
G04*
G04 #@! TF.SameCoordinates,B2E6FB57-DAF8-471C-B04C-D09EA4292E56*
G04*
G04*
G04 #@! TF.FilePolarity,Positive*
G04*
G01*
G75*
%ADD10C,0.0050*%
%ADD11C,0.0079*%
%ADD12C,0.0100*%
%ADD13C,0.0250*%
%ADD14C,0.0070*%
G36*
X003969Y023488D02*
Y024198D01*
X003619Y023848D01*
X003609D01*
X003969Y023488D01*
D02*
G37*
G36*
X00379Y027582D02*
Y028292D01*
X00344Y027942D01*
X00343D01*
X00379Y027582D01*
D02*
G37*
D10*
X01576Y016916D02*
G03*
X01676Y015916I001J0D01*
G01*
X02576D02*
G03*
X02676Y016916I0J001D01*
G01*
Y021666D02*
G03*
X02576Y022666I-001J0D01*
G01*
X01676D02*
G03*
X01576Y021666I0J-001D01*
G01*
X004665Y029233D02*
G03*
X005519Y028807I000804J000542D01*
G01*
X005505D02*
G03*
X006359Y029233I000051J000968D01*
G01*
X01676Y015916D02*
X02576D01*
X02676Y016916D02*
Y021666D01*
X01676Y022666D02*
X02576D01*
X01576Y016916D02*
Y021666D01*
X004606Y030224D02*
X006417D01*
X01114Y030049D02*
Y032549D01*
X007364Y030049D02*
Y032549D01*
D11*
X027166Y01658D02*
G03*
X027166Y01658I-000039J0D01*
G01*
X010136Y021783D02*
G03*
X010636Y021783I00025J0D01*
G01*
X0072Y029724D02*
G03*
X0072Y029724I-000039J0D01*
G01*
X007791Y029317D02*
G03*
X007791Y029317I-000039J0D01*
G01*
X016181Y000593D02*
G03*
X016181Y000593I-000039J0D01*
G01*
X008207Y001783D02*
Y021783D01*
Y001783D02*
X012565D01*
Y021783D01*
X010636D02*
X012565D01*
X008207D02*
X010136D01*
X003281Y016293D02*
Y016883D01*
Y016293D02*
X005381D01*
Y017093D01*
X003281D02*
X005381D01*
X003281Y016883D02*
Y017093D01*
Y002828D02*
Y003418D01*
Y002828D02*
X005381D01*
Y003628D01*
X003281D02*
X005381D01*
X003281Y003418D02*
Y003628D01*
X003461Y004511D02*
Y004981D01*
Y004511D02*
X005381D01*
Y005291D01*
X004281Y005161D02*
X004561D01*
X004281Y004631D02*
X004561D01*
X003461Y005291D02*
X005381D01*
X003461Y004981D02*
Y005291D01*
X003281Y019659D02*
Y020249D01*
Y019659D02*
X005381D01*
Y020459D01*
X003281D02*
X005381D01*
X003281Y020249D02*
Y020459D01*
X003461Y021342D02*
Y021812D01*
Y021342D02*
X005381D01*
Y022122D01*
X004281Y021992D02*
X004561D01*
X004281Y021462D02*
X004561D01*
X003461Y022122D02*
X005381D01*
X003461Y021812D02*
Y022122D01*
Y01461D02*
Y01508D01*
Y01461D02*
X005381D01*
Y01539D01*
X004281Y01526D02*
X004561D01*
X004281Y01473D02*
X004561D01*
X003461Y01539D02*
X005381D01*
X003461Y01508D02*
Y01539D01*
Y017976D02*
Y018446D01*
Y017976D02*
X005381D01*
Y018756D01*
X004281Y018626D02*
X004561D01*
X004281Y018096D02*
X004561D01*
X003461Y018756D02*
X005381D01*
X003461Y018446D02*
Y018756D01*
X003281Y006195D02*
Y006785D01*
Y006195D02*
X005381D01*
Y006995D01*
X003281D02*
X005381D01*
X003281Y006785D02*
Y006995D01*
X003461Y007878D02*
Y008348D01*
Y007878D02*
X005381D01*
Y008658D01*
X004281Y008528D02*
X004561D01*
X004281Y007998D02*
X004561D01*
X003461Y008658D02*
X005381D01*
X003461Y008348D02*
Y008658D01*
X003281Y009561D02*
Y010151D01*
Y009561D02*
X005381D01*
Y010361D01*
X003281D02*
X005381D01*
X003281Y010151D02*
Y010361D01*
X003461Y011244D02*
Y011714D01*
Y011244D02*
X005381D01*
Y012024D01*
X004281Y011894D02*
X004561D01*
X004281Y011364D02*
X004561D01*
X003461Y012024D02*
X005381D01*
X003461Y011714D02*
Y012024D01*
X003281Y012927D02*
Y013517D01*
Y012927D02*
X005381D01*
Y013727D01*
X003281D02*
X005381D01*
X003281Y013517D02*
Y013727D01*
X006078Y023705D02*
Y024014D01*
X004158Y023705D02*
X006078D01*
X004978Y024365D02*
X005258D01*
X004978Y023835D02*
X005258D01*
X004158Y023705D02*
Y024485D01*
X006078D01*
Y024014D02*
Y024485D01*
X00652Y025634D02*
Y026104D01*
Y025634D02*
X00844D01*
Y026414D01*
X00734Y026284D02*
X00762D01*
X00734Y025754D02*
X00762D01*
X00652Y026414D02*
X00844D01*
X00652Y026104D02*
Y026414D01*
X00844Y023705D02*
Y024014D01*
X00652Y023705D02*
X00844D01*
X00734Y024365D02*
X00762D01*
X00734Y023835D02*
X00762D01*
X00652Y023705D02*
Y024485D01*
X00844D01*
Y024014D02*
Y024485D01*
X00844Y027873D02*
Y028343D01*
X00652D02*
X00844D01*
X00652Y027563D02*
Y028343D01*
X00734Y027693D02*
X00762D01*
X00734Y028223D02*
X00762D01*
X00652Y027563D02*
X00844D01*
Y027873D01*
X012836Y02785D02*
X013146D01*
Y02593D02*
Y02785D01*
X012486Y02675D02*
Y02703D01*
X013016Y02675D02*
Y02703D01*
X012366Y02593D02*
X013146D01*
X012366D02*
Y02785D01*
X012836D01*
X011796Y028209D02*
Y028681D01*
X012266Y025566D02*
X012576D01*
Y023646D02*
Y025566D01*
X011916Y024466D02*
Y024746D01*
X012446Y024466D02*
Y024746D01*
X011796Y023646D02*
X012576D01*
X011796D02*
Y025566D01*
X012266D01*
X004158Y025634D02*
Y026104D01*
Y025634D02*
X006078D01*
Y026414D01*
X004978Y026284D02*
X005258D01*
X004978Y025754D02*
X005258D01*
X004158Y026414D02*
X006078D01*
X004158Y026104D02*
Y026414D01*
X019059Y032377D02*
X019529D01*
X019059Y030457D02*
Y032377D01*
Y030457D02*
X019839D01*
X019709Y031277D02*
Y031557D01*
X019179Y031277D02*
Y031557D01*
X019839Y030457D02*
Y032377D01*
X019529D02*
X019839D01*
X020437Y02785D02*
X020907D01*
X020437Y02593D02*
Y02785D01*
Y02593D02*
X021217D01*
X021087Y02675D02*
Y02703D01*
X020557Y02675D02*
Y02703D01*
X021217Y02593D02*
Y02785D01*
X020907D02*
X021217D01*
X019851Y028209D02*
Y028681D01*
Y025566D02*
X020321D01*
X019851Y023646D02*
Y025566D01*
Y023646D02*
X020631D01*
X020501Y024466D02*
Y024746D01*
X019971Y024466D02*
Y024746D01*
X020631Y023646D02*
Y025566D01*
X020321D02*
X020631D01*
X004552Y031303D02*
Y031773D01*
Y031303D02*
X006472D01*
Y032083D01*
X005372Y031953D02*
X005652D01*
X005372Y031423D02*
X005652D01*
X004552Y032083D02*
X006472D01*
X004552Y031773D02*
Y032083D01*
X025791Y02785D02*
X026261D01*
X025791Y02593D02*
Y02785D01*
Y02593D02*
X026571D01*
X026441Y02675D02*
Y02703D01*
X025911Y02675D02*
Y02703D01*
X026571Y02593D02*
Y02785D01*
X026261D02*
X026571D01*
X023114Y02785D02*
X023584D01*
X023114Y02593D02*
Y02785D01*
Y02593D02*
X023894D01*
X023764Y02675D02*
Y02703D01*
X023234Y02675D02*
Y02703D01*
X023894Y02593D02*
Y02785D01*
X023584D02*
X023894D01*
X014481Y025566D02*
X014951D01*
X014481Y023646D02*
Y025566D01*
Y023646D02*
X015261D01*
X015131Y024466D02*
Y024746D01*
X014601Y024466D02*
Y024746D01*
X015261Y023646D02*
Y025566D01*
X014951D02*
X015261D01*
X017166Y025566D02*
X017636D01*
X017166Y023646D02*
Y025566D01*
Y023646D02*
X017946D01*
X017816Y024466D02*
Y024746D01*
X017286Y024466D02*
Y024746D01*
X017946Y023646D02*
Y025566D01*
X017636D02*
X017946D01*
X025221Y025566D02*
X025691D01*
X025221Y023646D02*
Y025566D01*
Y023646D02*
X026001D01*
X025871Y024466D02*
Y024746D01*
X025341Y024466D02*
Y024746D01*
X026001Y023646D02*
Y025566D01*
X025691D02*
X026001D01*
X022536Y025566D02*
X023006D01*
X022536Y023646D02*
Y025566D01*
Y023646D02*
X023316D01*
X023186Y024466D02*
Y024746D01*
X022656Y024466D02*
Y024746D01*
X023316Y023646D02*
Y025566D01*
X023006D02*
X023316D01*
X023901Y032377D02*
X024371D01*
X023901Y030457D02*
Y032377D01*
Y030457D02*
X024681D01*
X024551Y031277D02*
Y031557D01*
X024021Y031277D02*
Y031557D01*
X024681Y030457D02*
Y032377D01*
X024371D02*
X024681D01*
X025221Y028209D02*
Y028681D01*
X011796Y032377D02*
X012266D01*
X011796Y030457D02*
Y032377D01*
Y030457D02*
X012576D01*
X012446Y031277D02*
Y031557D01*
X011916Y031277D02*
Y031557D01*
X012576Y030457D02*
Y032377D01*
X012266D02*
X012576D01*
X000224Y022913D02*
X003374D01*
X000224D02*
Y026743D01*
X003374D01*
Y022913D02*
Y026743D01*
X02148Y032377D02*
X02195D01*
X02148Y030457D02*
Y032377D01*
Y030457D02*
X02226D01*
X02213Y031277D02*
Y031557D01*
X0216Y031277D02*
Y031557D01*
X02226Y030457D02*
Y032377D01*
X02195D02*
X02226D01*
X022536Y028209D02*
Y028681D01*
X017166Y028209D02*
Y028681D01*
X016638Y032377D02*
X017108D01*
X016638Y030457D02*
Y032377D01*
Y030457D02*
X017418D01*
X017288Y031277D02*
Y031557D01*
X016758Y031277D02*
Y031557D01*
X017418Y030457D02*
Y032377D01*
X017108D02*
X017418D01*
X014217D02*
X014687D01*
X014217Y030457D02*
Y032377D01*
Y030457D02*
X014997D01*
X014867Y031277D02*
Y031557D01*
X014337Y031277D02*
Y031557D01*
X014997Y030457D02*
Y032377D01*
X014687D02*
X014997D01*
X014481Y028209D02*
Y028681D01*
X01823Y02785D02*
X01854D01*
Y02593D02*
Y02785D01*
X01788Y02675D02*
Y02703D01*
X01841Y02675D02*
Y02703D01*
X01776Y02593D02*
X01854D01*
X01776D02*
Y02785D01*
X01823D01*
X015552D02*
X015862D01*
Y02593D02*
Y02785D01*
X015202Y02675D02*
Y02703D01*
X015732Y02675D02*
Y02703D01*
X015082Y02593D02*
X015862D01*
X015082D02*
Y02785D01*
X015552D01*
X016616Y000848D02*
Y015049D01*
X015667Y000848D02*
Y015049D01*
X016616D01*
X015667Y000848D02*
X016616D01*
X000245Y027007D02*
X003265D01*
X000245D02*
Y029837D01*
X003265D01*
Y027007D02*
Y029837D01*
X023498Y013005D02*
X023708D01*
X023498D02*
Y015105D01*
X024298D01*
Y013005D02*
Y015105D01*
X023708Y013005D02*
X024298D01*
D12*
X001254Y023483D02*
G03*
X001264Y023493I0J00001D01*
G01*
X000254Y026033D02*
G03*
X000244Y026043I-00001J0D01*
G01*
X000264D02*
G03*
X000254Y026033I0J-00001D01*
G01*
X001275Y027587D02*
G03*
X001285Y027597I0J00001D01*
G01*
X000285Y029247D02*
G03*
X000275Y029237I0J-00001D01*
G01*
D02*
G03*
X000265Y029247I-00001J0D01*
G01*
X004213Y016496D02*
Y016851D01*
X004449Y016496D02*
Y016851D01*
X004213Y003031D02*
Y003386D01*
X004449Y003031D02*
Y003386D01*
X004213Y019862D02*
Y020217D01*
X004449Y019862D02*
Y020217D01*
X004213Y006398D02*
Y006752D01*
X004449Y006398D02*
Y006752D01*
X004213Y009764D02*
Y010118D01*
X004449Y009764D02*
Y010118D01*
X004213Y01313D02*
Y013484D01*
X004449Y01313D02*
Y013484D01*
X000264Y023473D02*
X001264D01*
Y023883D01*
X000244D02*
X001264D01*
X000264Y026043D02*
X001254D01*
Y025633D02*
Y026043D01*
X000234Y025633D02*
X001254D01*
X000285Y027577D02*
X001285D01*
Y027987D01*
X000265D02*
X001285D01*
X000255Y028837D02*
X001275D01*
Y029247D01*
X000285D02*
X001275D01*
X02374Y014173D02*
X024095D01*
X02374Y013937D02*
X024095D01*
X00911Y002086D02*
Y002486D01*
Y002286D01*
X00971D01*
Y002986D02*
Y002786D01*
X00961Y002686D01*
X00941D01*
X00931Y002786D01*
Y002986D01*
X00941Y003086D01*
X00951D01*
Y002686D01*
X00971Y003286D02*
Y003586D01*
X00961Y003685D01*
X00951Y003586D01*
Y003386D01*
X00941Y003286D01*
X00931Y003386D01*
Y003685D01*
X00921Y003985D02*
X00931D01*
Y003885D01*
Y004085D01*
Y003985D01*
X00961D01*
X00971Y004085D01*
Y004985D02*
X00911D01*
X00931Y005185D01*
X00911Y005385D01*
X00971D01*
X00931Y005685D02*
Y005885D01*
X00941Y005985D01*
X00971D01*
Y005685D01*
X00961Y005585D01*
X00951Y005685D01*
Y005985D01*
X00931Y006585D02*
Y006285D01*
X00941Y006185D01*
X00961D01*
X00971Y006285D01*
Y006585D01*
X00911Y006784D02*
X00971D01*
X00941D01*
X00931Y006884D01*
Y007084D01*
X00941Y007184D01*
X00971D01*
Y007384D02*
Y007584D01*
Y007484D01*
X00931D01*
Y007384D01*
X00971Y007884D02*
X00931D01*
Y008184D01*
X00941Y008284D01*
X00971D01*
Y008784D02*
Y008584D01*
X00961Y008484D01*
X00941D01*
X00931Y008584D01*
Y008784D01*
X00941Y008884D01*
X00951D01*
Y008484D01*
X01007Y002086D02*
X010469D01*
X010669Y002286D01*
X010469Y002486D01*
X01007D01*
X010669Y002986D02*
Y002786D01*
X010569Y002686D01*
X01037D01*
X01027Y002786D01*
Y002986D01*
X01037Y003086D01*
X010469D01*
Y002686D01*
X01027Y003286D02*
X010669D01*
X010469D01*
X01037Y003386D01*
X01027Y003486D01*
Y003586D01*
Y003885D02*
Y003985D01*
X01037D01*
Y003885D01*
X01027D01*
X010569D02*
Y003985D01*
X010669D01*
Y003885D01*
X010569D01*
X010669Y004985D02*
Y005185D01*
Y005085D01*
X01007D01*
X01017Y004985D01*
X010669Y005485D02*
X010569D01*
Y005585D01*
X010669D01*
Y005485D01*
X01017Y005985D02*
X01007Y006085D01*
Y006285D01*
X01017Y006385D01*
X010569D01*
X010669Y006285D01*
Y006085D01*
X010569Y005985D01*
X01017D01*
X010669Y006585D02*
X010569D01*
Y006684D01*
X010669D01*
Y006585D01*
X01017Y007084D02*
X01007Y007184D01*
Y007384D01*
X01017Y007484D01*
X010569D01*
X010669Y007384D01*
Y007184D01*
X010569Y007084D01*
X01017D01*
X011029Y002086D02*
X011629D01*
Y002386D01*
X011529Y002486D01*
X011429D01*
X011329Y002386D01*
Y002086D01*
Y002386D01*
X011229Y002486D01*
X011129D01*
X011029Y002386D01*
Y002086D01*
X011229Y002686D02*
X011529D01*
X011629Y002786D01*
Y003086D01*
X011729D01*
X011829Y002986D01*
Y002886D01*
X011629Y003086D02*
X011229D01*
Y003286D02*
Y003386D01*
X011329D01*
Y003286D01*
X011229D01*
X011529D02*
Y003386D01*
X011629D01*
Y003286D01*
X011529D01*
X011029Y004385D02*
Y004785D01*
Y004585D01*
X011629D01*
X011229Y004985D02*
X011629D01*
X011429D01*
X011329Y005085D01*
X011229Y005185D01*
Y005285D01*
X011629Y005585D02*
Y005785D01*
Y005685D01*
X011229D01*
Y005585D01*
X011629Y006385D02*
Y006185D01*
X011529Y006085D01*
X011329D01*
X011229Y006185D01*
Y006385D01*
X011329Y006485D01*
X011429D01*
Y006085D01*
X011129Y006784D02*
X011229D01*
Y006684D01*
Y006884D01*
Y006784D01*
X011529D01*
X011629Y006884D01*
X020479Y010573D02*
Y009973D01*
X020879D01*
X021079Y010573D02*
X021478D01*
X021279D01*
Y009973D01*
X021678D02*
X021878D01*
X021778D01*
Y010573D01*
X021678Y010473D01*
X022607Y004985D02*
Y004385D01*
X022907D01*
X023007Y004485D01*
Y004885D01*
X022907Y004985D01*
X022607D01*
X023207D02*
Y004385D01*
X023507D01*
X023607Y004485D01*
Y004585D01*
X023507Y004685D01*
X023207D01*
X023507D01*
X023607Y004785D01*
Y004885D01*
X023507Y004985D01*
X023207D01*
X023807Y004385D02*
X024007D01*
X023907D01*
Y004985D01*
X023807Y004885D01*
X022735Y014885D02*
X022635Y014985D01*
X022435D01*
X022335Y014885D01*
Y014485D01*
X022435Y014385D01*
X022635D01*
X022735Y014485D01*
X022935D02*
X023035Y014385D01*
X023235D01*
X023334Y014485D01*
Y014885D01*
X023235Y014985D01*
X023035D01*
X022935Y014885D01*
Y014785D01*
X023035Y014685D01*
X023334D01*
X008752Y031599D02*
Y031099D01*
X008852Y030999D01*
X009052D01*
X009152Y031099D01*
Y031599D01*
X009352Y031499D02*
X009452Y031599D01*
X009652D01*
X009752Y031499D01*
Y031399D01*
X009652Y031299D01*
X009552D01*
X009652D01*
X009752Y031199D01*
Y031099D01*
X009652Y030999D01*
X009452D01*
X009352Y031099D01*
X020563Y019788D02*
Y019288D01*
X020663Y019188D01*
X020863D01*
X020963Y019288D01*
Y019788D01*
X021563Y019188D02*
X021163D01*
X021563Y019588D01*
Y019688D01*
X021463Y019788D01*
X021263D01*
X021163Y019688D01*
X009636Y020869D02*
X009536Y020969D01*
X009337D01*
X009237Y020869D01*
Y020769D01*
X009337Y020669D01*
X009536D01*
X009636Y020569D01*
Y020469D01*
X009536Y020369D01*
X009337D01*
X009237Y020469D01*
X009836Y020969D02*
X010236D01*
X010036D01*
Y020369D01*
X010436D02*
Y020969D01*
X010636Y020769D01*
X010836Y020969D01*
Y020369D01*
X011036D02*
X011236D01*
X011136D01*
Y020969D01*
X011036Y020869D01*
X025591Y025979D02*
X025197D01*
Y026175D01*
X025263Y026241D01*
X025394D01*
X025459Y026175D01*
Y025979D01*
Y02611D02*
X025591Y026241D01*
X025263Y026372D02*
X025197Y026438D01*
Y026569D01*
X025263Y026635D01*
X025328D01*
X025394Y026569D01*
Y026503D01*
Y026569D01*
X025459Y026635D01*
X025525D01*
X025591Y026569D01*
Y026438D01*
X025525Y026372D01*
X025591Y026766D02*
Y026897D01*
Y026831D01*
X025197D01*
X025263Y026766D01*
X022913Y025972D02*
X02252D01*
Y026169D01*
X022585Y026234D01*
X022717D01*
X022782Y026169D01*
Y025972D01*
Y026103D02*
X022913Y026234D01*
X022585Y026366D02*
X02252Y026431D01*
Y026562D01*
X022585Y026628D01*
X022651D01*
X022717Y026562D01*
Y026497D01*
Y026562D01*
X022782Y026628D01*
X022848D01*
X022913Y026562D01*
Y026431D01*
X022848Y026366D01*
X022585Y026759D02*
X02252Y026825D01*
Y026956D01*
X022585Y027022D01*
X022848D01*
X022913Y026956D01*
Y026825D01*
X022848Y026759D01*
X022585D01*
X020236Y026031D02*
X019843D01*
Y026228D01*
X019908Y026293D01*
X020039D01*
X020105Y026228D01*
Y026031D01*
Y026162D02*
X020236Y026293D01*
Y026687D02*
Y026424D01*
X019974Y026687D01*
X019908D01*
X019843Y026621D01*
Y02649D01*
X019908Y026424D01*
X020171Y026818D02*
X020236Y026884D01*
Y027015D01*
X020171Y02708D01*
X019908D01*
X019843Y027015D01*
Y026884D01*
X019908Y026818D01*
X019974D01*
X020039Y026884D01*
Y02708D01*
X026123Y025525D02*
X026517D01*
Y025328D01*
X026451Y025262D01*
X02632D01*
X026254Y025328D01*
Y025525D01*
Y025394D02*
X026123Y025262D01*
Y024869D02*
Y025131D01*
X026385Y024869D01*
X026451D01*
X026517Y024934D01*
Y025066D01*
X026451Y025131D01*
Y024738D02*
X026517Y024672D01*
Y024541D01*
X026451Y024475D01*
X026385D01*
X02632Y024541D01*
X026254Y024475D01*
X026189D01*
X026123Y024541D01*
Y024672D01*
X026189Y024738D01*
X026254D01*
X02632Y024672D01*
X026385Y024738D01*
X026451D01*
X02632Y024672D02*
Y024541D01*
X023438Y025525D02*
X023831D01*
Y025328D01*
X023766Y025262D01*
X023635D01*
X023569Y025328D01*
Y025525D01*
Y025394D02*
X023438Y025262D01*
Y024869D02*
Y025131D01*
X0237Y024869D01*
X023766D01*
X023831Y024934D01*
Y025066D01*
X023766Y025131D01*
X023831Y024738D02*
Y024475D01*
X023766D01*
X023504Y024738D01*
X023438D01*
X020753Y025525D02*
X021146D01*
Y025328D01*
X021081Y025262D01*
X02095D01*
X020884Y025328D01*
Y025525D01*
Y025394D02*
X020753Y025262D01*
Y024869D02*
Y025131D01*
X021015Y024869D01*
X021081D01*
X021146Y024934D01*
Y025066D01*
X021081Y025131D01*
X021146Y024475D02*
X021081Y024606D01*
X02095Y024738D01*
X020818D01*
X020753Y024672D01*
Y024541D01*
X020818Y024475D01*
X020884D01*
X02095Y024541D01*
Y024738D01*
X023779Y030499D02*
X023386D01*
Y030696D01*
X023451Y030761D01*
X023583D01*
X023648Y030696D01*
Y030499D01*
Y03063D02*
X023779Y030761D01*
Y031155D02*
Y030892D01*
X023517Y031155D01*
X023451D01*
X023386Y031089D01*
Y030958D01*
X023451Y030892D01*
X023386Y031548D02*
Y031286D01*
X023583D01*
X023517Y031417D01*
Y031483D01*
X023583Y031548D01*
X023714D01*
X023779Y031483D01*
Y031352D01*
X023714Y031286D01*
X022795Y030499D02*
X022402D01*
Y030696D01*
X022467Y030761D01*
X022598D01*
X022664Y030696D01*
Y030499D01*
Y03063D02*
X022795Y030761D01*
Y031155D02*
Y030892D01*
X022533Y031155D01*
X022467D01*
X022402Y031089D01*
Y030958D01*
X022467Y030892D01*
X022795Y031483D02*
X022402D01*
X022598Y031286D01*
Y031548D01*
X020354Y030499D02*
X019961D01*
Y030696D01*
X020026Y030761D01*
X020157D01*
X020223Y030696D01*
Y030499D01*
Y03063D02*
X020354Y030761D01*
Y031155D02*
Y030892D01*
X020092Y031155D01*
X020026D01*
X019961Y031089D01*
Y030958D01*
X020026Y030892D01*
Y031286D02*
X019961Y031352D01*
Y031483D01*
X020026Y031548D01*
X020092D01*
X020157Y031483D01*
Y031417D01*
Y031483D01*
X020223Y031548D01*
X020289D01*
X020354Y031483D01*
Y031352D01*
X020289Y031286D01*
X017559Y02609D02*
X017165D01*
Y026287D01*
X017231Y026352D01*
X017362D01*
X017428Y026287D01*
Y02609D01*
Y026221D02*
X017559Y026352D01*
Y026746D02*
Y026483D01*
X017297Y026746D01*
X017231D01*
X017165Y02668D01*
Y026549D01*
X017231Y026483D01*
X017559Y027139D02*
Y026877D01*
X017297Y027139D01*
X017231D01*
X017165Y027074D01*
Y026942D01*
X017231Y026877D01*
X014882Y02599D02*
X014488D01*
Y026186D01*
X014554Y026252D01*
X014685D01*
X014751Y026186D01*
Y02599D01*
Y026121D02*
X014882Y026252D01*
Y026646D02*
Y026383D01*
X014619Y026646D01*
X014554D01*
X014488Y02658D01*
Y026449D01*
X014554Y026383D01*
X014882Y026777D02*
Y026908D01*
Y026842D01*
X014488D01*
X014554Y026777D01*
X012165Y026011D02*
X011772D01*
Y026207D01*
X011837Y026273D01*
X011968D01*
X012034Y026207D01*
Y026011D01*
Y026142D02*
X012165Y026273D01*
Y026667D02*
Y026404D01*
X011903Y026667D01*
X011837D01*
X011772Y026601D01*
Y02647D01*
X011837Y026404D01*
Y026798D02*
X011772Y026863D01*
Y026995D01*
X011837Y02706D01*
X0121D01*
X012165Y026995D01*
Y026863D01*
X0121Y026798D01*
X011837D01*
X018068Y025531D02*
X018461D01*
Y025335D01*
X018396Y025269D01*
X018265D01*
X018199Y025335D01*
Y025531D01*
Y0254D02*
X018068Y025269D01*
Y025138D02*
Y025007D01*
Y025072D01*
X018461D01*
X018396Y025138D01*
X018133Y02481D02*
X018068Y024744D01*
Y024613D01*
X018133Y024547D01*
X018396D01*
X018461Y024613D01*
Y024744D01*
X018396Y02481D01*
X01833D01*
X018265Y024744D01*
Y024547D01*
X015383Y025531D02*
X015776D01*
Y025335D01*
X015711Y025269D01*
X01558D01*
X015514Y025335D01*
Y025531D01*
Y0254D02*
X015383Y025269D01*
Y025138D02*
Y025007D01*
Y025072D01*
X015776D01*
X015711Y025138D01*
Y02481D02*
X015776Y024744D01*
Y024613D01*
X015711Y024547D01*
X015645D01*
X01558Y024613D01*
X015514Y024547D01*
X015448D01*
X015383Y024613D01*
Y024744D01*
X015448Y02481D01*
X015514D01*
X01558Y024744D01*
X015645Y02481D01*
X015711D01*
X01558Y024744D02*
Y024613D01*
X012737Y025531D02*
X013131D01*
Y025335D01*
X013065Y025269D01*
X012934D01*
X012868Y025335D01*
Y025531D01*
Y0254D02*
X012737Y025269D01*
Y025138D02*
Y025007D01*
Y025072D01*
X013131D01*
X013065Y025138D01*
X013131Y02481D02*
Y024547D01*
X013065D01*
X012803Y02481D01*
X012737D01*
X017953Y030492D02*
X017559D01*
Y030689D01*
X017625Y030755D01*
X017756D01*
X017822Y030689D01*
Y030492D01*
Y030623D02*
X017953Y030755D01*
Y030886D02*
Y031017D01*
Y030951D01*
X017559D01*
X017625Y030886D01*
X017559Y031476D02*
X017625Y031345D01*
X017756Y031214D01*
X017887D01*
X017953Y031279D01*
Y031411D01*
X017887Y031476D01*
X017822D01*
X017756Y031411D01*
Y031214D01*
X015512Y030492D02*
X015118D01*
Y030689D01*
X015184Y030755D01*
X015315D01*
X015381Y030689D01*
Y030492D01*
Y030623D02*
X015512Y030755D01*
Y030886D02*
Y031017D01*
Y030951D01*
X015118D01*
X015184Y030886D01*
X015118Y031476D02*
Y031214D01*
X015315D01*
X015249Y031345D01*
Y031411D01*
X015315Y031476D01*
X015446D01*
X015512Y031411D01*
Y031279D01*
X015446Y031214D01*
X013071Y030492D02*
X012677D01*
Y030689D01*
X012743Y030755D01*
X012874D01*
X01294Y030689D01*
Y030492D01*
Y030623D02*
X013071Y030755D01*
Y030886D02*
Y031017D01*
Y030951D01*
X012677D01*
X012743Y030886D01*
X013071Y031411D02*
X012677D01*
X012874Y031214D01*
Y031476D01*
X004594Y032209D02*
Y032809D01*
X004894D01*
X004994Y032709D01*
Y032509D01*
X004894Y032409D01*
X004594D01*
X004794D02*
X004994Y032209D01*
X005194D02*
X005394D01*
X005294D01*
Y032809D01*
X005194Y032709D01*
X005694D02*
X005794Y032809D01*
X005993D01*
X006093Y032709D01*
Y032609D01*
X005993Y032509D01*
X005894D01*
X005993D01*
X006093Y032409D01*
Y032309D01*
X005993Y032209D01*
X005794D01*
X005694Y032309D01*
X005538Y004724D02*
Y005118D01*
X005735D01*
X005801Y005052D01*
Y004921D01*
X005735Y004856D01*
X005538D01*
X005669D02*
X005801Y004724D01*
X005932D02*
X006063D01*
X005997D01*
Y005118D01*
X005932Y005052D01*
X006522Y004724D02*
X00626D01*
X006522Y004987D01*
Y005052D01*
X006457Y005118D01*
X006325D01*
X00626Y005052D01*
X005538Y014803D02*
Y015197D01*
X005735D01*
X005801Y015131D01*
Y015D01*
X005735Y014934D01*
X005538D01*
X005669D02*
X005801Y014803D01*
X005932D02*
X006063D01*
X005997D01*
Y015197D01*
X005932Y015131D01*
X00626Y014803D02*
X006391D01*
X006325D01*
Y015197D01*
X00626Y015131D01*
X005538Y008071D02*
Y008464D01*
X005735D01*
X005801Y008399D01*
Y008268D01*
X005735Y008202D01*
X005538D01*
X005669D02*
X005801Y008071D01*
X005932Y008137D02*
X005997Y008071D01*
X006129D01*
X006194Y008137D01*
Y008399D01*
X006129Y008464D01*
X005997D01*
X005932Y008399D01*
Y008333D01*
X005997Y008268D01*
X006194D01*
X005538Y01815D02*
Y018543D01*
X005735D01*
X005801Y018478D01*
Y018346D01*
X005735Y018281D01*
X005538D01*
X005669D02*
X005801Y01815D01*
X005932Y018478D02*
X005997Y018543D01*
X006129D01*
X006194Y018478D01*
Y018412D01*
X006129Y018346D01*
X006194Y018281D01*
Y018215D01*
X006129Y01815D01*
X005997D01*
X005932Y018215D01*
Y018281D01*
X005997Y018346D01*
X005932Y018412D01*
Y018478D01*
X005997Y018346D02*
X006129D01*
X005538Y011457D02*
Y01185D01*
X005735D01*
X005801Y011785D01*
Y011654D01*
X005735Y011588D01*
X005538D01*
X005669D02*
X005801Y011457D01*
X005932Y01185D02*
X006194D01*
Y011785D01*
X005932Y011522D01*
Y011457D01*
X005538Y021535D02*
Y021929D01*
X005735D01*
X005801Y021863D01*
Y021732D01*
X005735Y021667D01*
X005538D01*
X005669D02*
X005801Y021535D01*
X006194Y021929D02*
X006063Y021863D01*
X005932Y021732D01*
Y021601D01*
X005997Y021535D01*
X006129D01*
X006194Y021601D01*
Y021667D01*
X006129Y021732D01*
X005932D01*
X00771Y028524D02*
Y028957D01*
X007927D01*
X007999Y028884D01*
Y02874D01*
X007927Y028668D01*
X00771D01*
X007854D02*
X007999Y028524D01*
X008432Y028957D02*
X008143D01*
Y02874D01*
X008287Y028812D01*
X008359D01*
X008432Y02874D01*
Y028596D01*
X008359Y028524D01*
X008215D01*
X008143Y028596D01*
X00771Y026555D02*
Y026988D01*
X007927D01*
X007999Y026916D01*
Y026772D01*
X007927Y0267D01*
X00771D01*
X007854D02*
X007999Y026555D01*
X008359D02*
Y026988D01*
X008143Y026772D01*
X008432D01*
X005348Y026555D02*
Y026988D01*
X005564D01*
X005637Y026916D01*
Y026772D01*
X005564Y0267D01*
X005348D01*
X005492D02*
X005637Y026555D01*
X005781Y026916D02*
X005853Y026988D01*
X005997D01*
X006069Y026916D01*
Y026844D01*
X005997Y026772D01*
X005925D01*
X005997D01*
X006069Y0267D01*
Y026627D01*
X005997Y026555D01*
X005853D01*
X005781Y026627D01*
X005348Y024587D02*
Y02502D01*
X005564D01*
X005637Y024947D01*
Y024803D01*
X005564Y024731D01*
X005348D01*
X005492D02*
X005637Y024587D01*
X006069D02*
X005781D01*
X006069Y024875D01*
Y024947D01*
X005997Y02502D01*
X005853D01*
X005781Y024947D01*
X007782Y024587D02*
Y02502D01*
X007999D01*
X008071Y024947D01*
Y024803D01*
X007999Y024731D01*
X007782D01*
X007927D02*
X008071Y024587D01*
X008215D02*
X008359D01*
X008287D01*
Y02502D01*
X008215Y024947D01*
X02673Y029042D02*
Y029304D01*
X026665Y02937D01*
X026534D01*
X026468Y029304D01*
Y029042D01*
X026534Y028976D01*
X026665D01*
X026599Y029108D02*
X02673Y028976D01*
X026665D02*
X02673Y029042D01*
X026861Y02937D02*
X027124D01*
Y029304D01*
X026861Y029042D01*
Y028976D01*
X024085Y029081D02*
Y029344D01*
X024019Y029409D01*
X023888D01*
X023822Y029344D01*
Y029081D01*
X023888Y029016D01*
X024019D01*
X023953Y029147D02*
X024085Y029016D01*
X024019D02*
X024085Y029081D01*
X024478Y029409D02*
X024347Y029344D01*
X024216Y029213D01*
Y029081D01*
X024281Y029016D01*
X024413D01*
X024478Y029081D01*
Y029147D01*
X024413Y029213D01*
X024216D01*
X0214Y029081D02*
Y029344D01*
X021334Y029409D01*
X021203D01*
X021137Y029344D01*
Y029081D01*
X021203Y029016D01*
X021334D01*
X021268Y029147D02*
X0214Y029016D01*
X021334D02*
X0214Y029081D01*
X021793Y029409D02*
X021531D01*
Y029213D01*
X021662Y029278D01*
X021728D01*
X021793Y029213D01*
Y029081D01*
X021728Y029016D01*
X021596D01*
X021531Y029081D01*
X018715D02*
Y029344D01*
X018649Y029409D01*
X018518D01*
X018452Y029344D01*
Y029081D01*
X018518Y029016D01*
X018649D01*
X018583Y029147D02*
X018715Y029016D01*
X018649D02*
X018715Y029081D01*
X019043Y029016D02*
Y029409D01*
X018846Y029213D01*
X019108D01*
X016045Y029081D02*
Y029344D01*
X015979Y029409D01*
X015848D01*
X015782Y029344D01*
Y029081D01*
X015848Y029016D01*
X015979D01*
X015913Y029147D02*
X016045Y029016D01*
X015979D02*
X016045Y029081D01*
X016176Y029344D02*
X016241Y029409D01*
X016373D01*
X016438Y029344D01*
Y029278D01*
X016373Y029213D01*
X016307D01*
X016373D01*
X016438Y029147D01*
Y029081D01*
X016373Y029016D01*
X016241D01*
X016176Y029081D01*
X01336Y029081D02*
Y029344D01*
X013294Y029409D01*
X013163D01*
X013097Y029344D01*
Y029081D01*
X013163Y029016D01*
X013294D01*
X013228Y029147D02*
X01336Y029016D01*
X013294D02*
X01336Y029081D01*
X013753Y029016D02*
X013491D01*
X013753Y029278D01*
Y029344D01*
X013688Y029409D01*
X013556D01*
X013491Y029344D01*
X004921Y030509D02*
Y030909D01*
X004821Y031009D01*
X004621D01*
X004521Y030909D01*
Y030509D01*
X004621Y030409D01*
X004821D01*
X004721Y030609D02*
X004921Y030409D01*
X004821D02*
X004921Y030509D01*
X005121Y030409D02*
X005321D01*
X005221D01*
Y031009D01*
X005121Y030909D01*
X005801Y00336D02*
X005735Y003425D01*
X005604D01*
X005538Y00336D01*
Y003097D01*
X005604Y003032D01*
X005735D01*
X005801Y003097D01*
X005932Y00336D02*
X005997Y003425D01*
X006129D01*
X006194Y00336D01*
Y003294D01*
X006129Y003228D01*
X006194Y003163D01*
Y003097D01*
X006129Y003032D01*
X005997D01*
X005932Y003097D01*
Y003163D01*
X005997Y003228D01*
X005932Y003294D01*
Y00336D01*
X005997Y003228D02*
X006129D01*
X005801Y013478D02*
X005735Y013543D01*
X005604D01*
X005538Y013478D01*
Y013215D01*
X005604Y01315D01*
X005735D01*
X005801Y013215D01*
X005932Y013543D02*
X006194D01*
Y013478D01*
X005932Y013215D01*
Y01315D01*
X005801Y006706D02*
X005735Y006772D01*
X005604D01*
X005538Y006706D01*
Y006444D01*
X005604Y006378D01*
X005735D01*
X005801Y006444D01*
X006129Y006378D02*
Y006772D01*
X005932Y006575D01*
X006194D01*
X005801Y016824D02*
X005735Y01689D01*
X005604D01*
X005538Y016824D01*
Y016562D01*
X005604Y016496D01*
X005735D01*
X005801Y016562D01*
X005932Y016824D02*
X005997Y01689D01*
X006129D01*
X006194Y016824D01*
Y016759D01*
X006129Y016693D01*
X006063D01*
X006129D01*
X006194Y016627D01*
Y016562D01*
X006129Y016496D01*
X005997D01*
X005932Y016562D01*
X005801Y010092D02*
X005735Y010157D01*
X005604D01*
X005538Y010092D01*
Y009829D01*
X005604Y009764D01*
X005735D01*
X005801Y009829D01*
X006194Y009764D02*
X005932D01*
X006194Y010026D01*
Y010092D01*
X006129Y010157D01*
X005997D01*
X005932Y010092D01*
X005801Y020171D02*
X005735Y020236D01*
X005604D01*
X005538Y020171D01*
Y019908D01*
X005604Y019843D01*
X005735D01*
X005801Y019908D01*
X005932Y019843D02*
X006063D01*
X005997D01*
Y020236D01*
X005932Y020171D01*
D13*
X000685Y006255D02*
Y009208D01*
Y006255D02*
X002937D01*
Y009208D01*
X000685D02*
X002937D01*
X000685Y002905D02*
Y005858D01*
Y002905D02*
X002937D01*
Y005858D01*
X000685D02*
X002937D01*
X000685Y012954D02*
Y015907D01*
Y012954D02*
X002937D01*
Y015907D01*
X000685D02*
X002937D01*
X000685Y019654D02*
Y022606D01*
Y019654D02*
X002937D01*
Y022606D01*
X000685D02*
X002937D01*
X000685Y016304D02*
Y019257D01*
Y016304D02*
X002937D01*
Y019257D01*
X000685D02*
X002937D01*
X000685Y009605D02*
Y012557D01*
Y009605D02*
X002937D01*
Y012557D01*
X000685D02*
X002937D01*
X008756Y023811D02*
Y028764D01*
Y023811D02*
X011008D01*
Y028764D01*
X008756D02*
X011008D01*
X024898Y015425D02*
X02715D01*
Y012472D02*
Y015425D01*
X024898Y012472D02*
X02715D01*
X024898D02*
Y015425D01*
D14*
X024502Y003161D02*
Y011931D01*
Y003161D02*
X026377D01*
X026366Y011931D02*
X026377Y003161D01*
X024502Y011931D02*
X026366D01*
M02*
