G04*
G04 #@! TF.GenerationSoftware,Altium Limited,Altium Designer,21.3.2 (30)*
G04*
G04 Layer_Color=128*
%FSTAX24Y24*%
%MOIN*%
G70*
G04*
G04 #@! TF.SameCoordinates,B2E6FB57-DAF8-471C-B04C-D09EA4292E56*
G04*
G04*
G04 #@! TF.FilePolarity,Positive*
G04*
G01*
G75*
%ADD68C,0.0020*%
D68*
X02515Y021666D02*
X02637D01*
X02576Y021056D02*
Y022277D01*
X01615Y021666D02*
X01737D01*
X01676Y021056D02*
Y022277D01*
X025543Y016666D02*
X025976D01*
X02576Y01645D02*
Y016883D01*
X024543Y016666D02*
X024976D01*
X02476Y01645D02*
Y016883D01*
X023543Y016666D02*
X023976D01*
X02376Y01645D02*
Y016883D01*
X022543Y016666D02*
X022976D01*
X02276Y01645D02*
Y016883D01*
X021543Y016666D02*
X021976D01*
X02176Y01645D02*
Y016883D01*
X016543Y016666D02*
X016976D01*
X01676Y01645D02*
Y016883D01*
X017543Y016666D02*
X017976D01*
X01776Y01645D02*
Y016883D01*
X018543Y016666D02*
X018976D01*
X01876Y01645D02*
Y016883D01*
X019543Y016666D02*
X019976D01*
X01976Y01645D02*
Y016883D01*
X020543Y016666D02*
X020976D01*
X02076Y01645D02*
Y016883D01*
X023285Y000903D02*
X023797D01*
X023541Y000647D02*
Y001159D01*
X023285Y011927D02*
X023797D01*
X023541Y011671D02*
Y012183D01*
X018167Y000903D02*
X018679D01*
X018423Y000647D02*
Y001159D01*
X018167Y011927D02*
X018679D01*
X018423Y011671D02*
Y012183D01*
X013169Y002283D02*
X013602D01*
X013386Y002067D02*
Y0025D01*
X013169Y003283D02*
X013602D01*
X013386Y003067D02*
Y0035D01*
X013169Y004283D02*
X013602D01*
X013386Y004067D02*
Y0045D01*
X013169Y005283D02*
X013602D01*
X013386Y005067D02*
Y0055D01*
X013169Y006283D02*
X013602D01*
X013386Y006067D02*
Y0065D01*
X013169Y007283D02*
X013602D01*
X013386Y007067D02*
Y0075D01*
X013169Y008283D02*
X013602D01*
X013386Y008067D02*
Y0085D01*
X013169Y009283D02*
X013602D01*
X013386Y009067D02*
Y0095D01*
X013169Y010283D02*
X013602D01*
X013386Y010067D02*
Y0105D01*
X013169Y011283D02*
X013602D01*
X013386Y011067D02*
Y0115D01*
X013169Y012283D02*
X013602D01*
X013386Y012067D02*
Y0125D01*
X013169Y013283D02*
X013602D01*
X013386Y013067D02*
Y0135D01*
X013169Y014283D02*
X013602D01*
X013386Y014067D02*
Y0145D01*
X013169Y015283D02*
X013602D01*
X013386Y015067D02*
Y0155D01*
X013169Y016283D02*
X013602D01*
X013386Y016067D02*
Y0165D01*
X013169Y017283D02*
X013602D01*
X013386Y017067D02*
Y0175D01*
X013169Y018283D02*
X013602D01*
X013386Y018067D02*
Y0185D01*
X013169Y019283D02*
X013602D01*
X013386Y019067D02*
Y0195D01*
X013169Y020283D02*
X013602D01*
X013386Y020067D02*
Y0205D01*
X013169Y021283D02*
X013602D01*
X013386Y021067D02*
Y0215D01*
X007169Y002283D02*
X007602D01*
X007386Y002067D02*
Y0025D01*
X007169Y003283D02*
X007602D01*
X007386Y003067D02*
Y0035D01*
X007169Y004283D02*
X007602D01*
X007386Y004067D02*
Y0045D01*
X007169Y005283D02*
X007602D01*
X007386Y005067D02*
Y0055D01*
X007169Y006283D02*
X007602D01*
X007386Y006067D02*
Y0065D01*
X007169Y007283D02*
X007602D01*
X007386Y007067D02*
Y0075D01*
X007169Y008283D02*
X007602D01*
X007386Y008067D02*
Y0085D01*
X007169Y009283D02*
X007602D01*
X007386Y009067D02*
Y0095D01*
X007169Y010283D02*
X007602D01*
X007386Y010067D02*
Y0105D01*
X007169Y011283D02*
X007602D01*
X007386Y011067D02*
Y0115D01*
X007169Y012283D02*
X007602D01*
X007386Y012067D02*
Y0125D01*
X007169Y013283D02*
X007602D01*
X007386Y013067D02*
Y0135D01*
X007169Y014283D02*
X007602D01*
X007386Y014067D02*
Y0145D01*
X007169Y015283D02*
X007602D01*
X007386Y015067D02*
Y0155D01*
X007169Y016283D02*
X007602D01*
X007386Y016067D02*
Y0165D01*
X007169Y017283D02*
X007602D01*
X007386Y017067D02*
Y0175D01*
X007169Y018283D02*
X007602D01*
X007386Y018067D02*
Y0185D01*
X007169Y019283D02*
X007602D01*
X007386Y019067D02*
Y0195D01*
X007169Y020283D02*
X007602D01*
X007386Y020067D02*
Y0205D01*
X007169Y021283D02*
X007602D01*
X007386Y021067D02*
Y0215D01*
X001358Y007232D02*
X001791D01*
X001575Y007015D02*
Y007448D01*
X001358Y008231D02*
X001791D01*
X001575Y008015D02*
Y008448D01*
X001358Y003882D02*
X001791D01*
X001575Y003665D02*
Y004098D01*
X001358Y004882D02*
X001791D01*
X001575Y004665D02*
Y005098D01*
X001358Y013931D02*
X001791D01*
X001575Y013714D02*
Y014147D01*
X001358Y014931D02*
X001791D01*
X001575Y014714D02*
Y015147D01*
X001358Y02063D02*
X001791D01*
X001575Y020413D02*
Y020846D01*
X001358Y02163D02*
X001791D01*
X001575Y021413D02*
Y021846D01*
X001358Y01728D02*
X001791D01*
X001575Y017064D02*
Y017497D01*
X001358Y01828D02*
X001791D01*
X001575Y018064D02*
Y018497D01*
X001358Y010581D02*
X001791D01*
X001575Y010365D02*
Y010798D01*
X001358Y011581D02*
X001791D01*
X001575Y011365D02*
Y011798D01*
X009429Y024787D02*
X009862D01*
X009646Y024571D02*
Y025004D01*
X009429Y026787D02*
X009862D01*
X009646Y026571D02*
Y027004D01*
X009429Y027787D02*
X009862D01*
X009646Y027571D02*
Y028004D01*
X009429Y025787D02*
X009862D01*
X009646Y025571D02*
Y026004D01*
X004354Y029724D02*
X004669D01*
X004512Y029567D02*
Y029882D01*
X005354Y029724D02*
X005669D01*
X005512Y029567D02*
Y029882D01*
X006354Y029724D02*
X006669D01*
X006512Y029567D02*
Y029882D01*
X007594Y032862D02*
X007909D01*
X007752Y032705D02*
Y03302D01*
X008594Y032862D02*
X008909D01*
X008752Y032705D02*
Y03302D01*
X009594Y032862D02*
X009909D01*
X009752Y032705D02*
Y03302D01*
X010594Y032862D02*
X010909D01*
X010752Y032705D02*
Y03302D01*
X010594Y029736D02*
X010909D01*
X010752Y029579D02*
Y029894D01*
X009594Y029736D02*
X009909D01*
X009752Y029579D02*
Y029894D01*
X008594Y029736D02*
X008909D01*
X008752Y029579D02*
Y029894D01*
X007594Y029736D02*
X007909D01*
X007752Y029579D02*
Y029894D01*
X025217Y004671D02*
X025728D01*
X025472Y004416D02*
Y004927D01*
X025217Y006661D02*
X025728D01*
X025472Y006406D02*
Y006917D01*
X025217Y008661D02*
X025728D01*
X025472Y008406D02*
Y008917D01*
X025197Y010661D02*
X025708D01*
X025452Y010406D02*
Y010917D01*
X002657Y024843D02*
X003091D01*
X002874Y024626D02*
Y025059D01*
X002657Y023843D02*
X003091D01*
X002874Y023626D02*
Y024059D01*
X002657Y025843D02*
X003091D01*
X002874Y025626D02*
Y026059D01*
X025571Y014449D02*
X026004D01*
X025787Y014232D02*
Y014665D01*
X025571Y013449D02*
X026004D01*
X025787Y013232D02*
Y013665D01*
X015941Y014449D02*
X016343D01*
X016142Y014248D02*
Y01465D01*
X015941Y013449D02*
X016343D01*
X016142Y013248D02*
Y01365D01*
X015941Y012449D02*
X016343D01*
X016142Y012248D02*
Y01265D01*
X015925Y011449D02*
X016358D01*
X016142Y011232D02*
Y011665D01*
X015941Y010449D02*
X016343D01*
X016142Y010248D02*
Y01065D01*
X015941Y009449D02*
X016343D01*
X016142Y009248D02*
Y00965D01*
X015941Y008449D02*
X016343D01*
X016142Y008248D02*
Y00865D01*
X015941Y007449D02*
X016343D01*
X016142Y007248D02*
Y00765D01*
X015941Y006449D02*
X016343D01*
X016142Y006248D02*
Y00665D01*
X015941Y005449D02*
X016343D01*
X016142Y005248D02*
Y00565D01*
X015941Y004449D02*
X016343D01*
X016142Y004248D02*
Y00465D01*
X015941Y003449D02*
X016343D01*
X016142Y003248D02*
Y00365D01*
X015941Y002449D02*
X016343D01*
X016142Y002248D02*
Y00265D01*
X015941Y001449D02*
X016343D01*
X016142Y001248D02*
Y00165D01*
X002579Y028937D02*
X003012D01*
X002795Y02872D02*
Y029154D01*
X002579Y027937D02*
X003012D01*
X002795Y02772D02*
Y028154D01*
X000965Y03189D02*
X002185D01*
X001575Y03128D02*
Y0325D01*
X025374Y001575D02*
X026595D01*
X025984Y000965D02*
Y002185D01*
X025374Y03189D02*
X026595D01*
X025984Y03128D02*
Y0325D01*
X000965Y001575D02*
X002185D01*
X001575Y000965D02*
Y002185D01*
X01437Y010669D02*
X014528D01*
X014449Y010591D02*
Y010748D01*
X021911Y02046D02*
X022069D01*
X02199Y020381D02*
Y020539D01*
X021993Y023346D02*
X02215D01*
X022071Y023268D02*
Y023425D01*
X010157Y032008D02*
X010315D01*
X010236Y031929D02*
Y032087D01*
X013592Y02833D02*
X013868D01*
X01373Y028192D02*
Y028468D01*
X021402Y02459D02*
X021678D01*
X02154Y024452D02*
Y024728D01*
X01624Y02748D02*
X016516D01*
X016378Y027343D02*
Y027618D01*
X017264Y02748D02*
X017539D01*
X017402Y027343D02*
Y027618D01*
M02*
