G04*
G04 #@! TF.GenerationSoftware,Altium Limited,Altium Designer,21.3.2 (30)*
G04*
G04 Layer_Color=16711935*
%FSTAX24Y24*%
%MOIN*%
G70*
G04*
G04 #@! TF.SameCoordinates,B2E6FB57-DAF8-471C-B04C-D09EA4292E56*
G04*
G04*
G04 #@! TF.FilePolarity,Negative*
G04*
G01*
G75*
%ADD25R,0.0671X0.0671*%
%ADD27C,0.1655*%
%ADD28R,0.0867X0.1261*%
%ADD29O,0.0867X0.1261*%
%ADD30R,0.1261X0.1261*%
%ADD31O,0.1261X0.0789*%
%ADD32R,0.1261X0.0789*%
%ADD33O,0.1261X0.0789*%
%ADD34R,0.1261X0.0789*%
%ADD35O,0.1261X0.0867*%
%ADD36R,0.1261X0.0867*%
%ADD37O,0.0671X0.0867*%
%ADD38R,0.0671X0.0867*%
%ADD39C,0.0789*%
%ADD40C,0.1458*%
%ADD41R,0.1458X0.1458*%
%ADD42C,0.2245*%
%ADD43C,0.0356*%
%ADD44C,0.0513*%
D25*
X007752Y029736D02*
D03*
D27*
X02576Y021666D02*
D03*
X01676D02*
D03*
D28*
X02576Y016666D02*
D03*
D29*
X02476D02*
D03*
X02376D02*
D03*
X02276D02*
D03*
X02176D02*
D03*
X01676D02*
D03*
X01776D02*
D03*
X01876D02*
D03*
X01976D02*
D03*
X02076D02*
D03*
D30*
X023541Y000903D02*
D03*
Y011927D02*
D03*
X018423Y000903D02*
D03*
Y011927D02*
D03*
D31*
X013386Y002283D02*
D03*
Y003283D02*
D03*
Y004283D02*
D03*
Y005283D02*
D03*
Y006283D02*
D03*
Y007283D02*
D03*
Y008283D02*
D03*
Y009283D02*
D03*
Y010283D02*
D03*
Y011283D02*
D03*
Y012283D02*
D03*
Y013283D02*
D03*
Y014283D02*
D03*
Y015283D02*
D03*
Y016283D02*
D03*
Y017283D02*
D03*
Y018283D02*
D03*
Y019283D02*
D03*
Y020283D02*
D03*
Y021283D02*
D03*
X007386Y002283D02*
D03*
Y003283D02*
D03*
Y004283D02*
D03*
Y005283D02*
D03*
Y006283D02*
D03*
Y007283D02*
D03*
Y008283D02*
D03*
Y009283D02*
D03*
Y010283D02*
D03*
Y011283D02*
D03*
Y012283D02*
D03*
Y013283D02*
D03*
Y014283D02*
D03*
Y015283D02*
D03*
Y016283D02*
D03*
Y017283D02*
D03*
Y018283D02*
D03*
Y019283D02*
D03*
Y020283D02*
D03*
X002874Y024843D02*
D03*
Y025843D02*
D03*
X002795Y028937D02*
D03*
D32*
X007386Y021283D02*
D03*
X002874Y023843D02*
D03*
X002795Y027937D02*
D03*
D33*
X001575Y007232D02*
D03*
Y003882D02*
D03*
Y013931D02*
D03*
Y02063D02*
D03*
Y01728D02*
D03*
Y010581D02*
D03*
X016142Y014449D02*
D03*
Y013449D02*
D03*
Y012449D02*
D03*
Y010449D02*
D03*
Y009449D02*
D03*
Y008449D02*
D03*
Y007449D02*
D03*
Y006449D02*
D03*
Y005449D02*
D03*
Y004449D02*
D03*
Y003449D02*
D03*
Y002449D02*
D03*
D34*
X001575Y008231D02*
D03*
Y004882D02*
D03*
Y014931D02*
D03*
Y02163D02*
D03*
Y01828D02*
D03*
Y011581D02*
D03*
X016142Y001449D02*
D03*
D35*
X009646Y024787D02*
D03*
Y026787D02*
D03*
Y025787D02*
D03*
X025787Y013449D02*
D03*
X016142Y011449D02*
D03*
D36*
X009646Y027787D02*
D03*
X025787Y014449D02*
D03*
D37*
X004512Y029724D02*
D03*
X005512D02*
D03*
D38*
X006512D02*
D03*
D39*
X007752Y032862D02*
D03*
X008752D02*
D03*
X009752D02*
D03*
X010752D02*
D03*
Y029736D02*
D03*
X009752D02*
D03*
X008752D02*
D03*
D40*
X025472Y004671D02*
D03*
Y006661D02*
D03*
Y008661D02*
D03*
D41*
X025452Y010661D02*
D03*
D42*
X001575Y03189D02*
D03*
X025984Y001575D02*
D03*
Y03189D02*
D03*
X001575Y001575D02*
D03*
D43*
X014449Y010669D02*
D03*
X02199Y02046D02*
D03*
X022071Y023346D02*
D03*
X010236Y032008D02*
D03*
D44*
X01373Y02833D02*
D03*
X02154Y02459D02*
D03*
X016378Y02748D02*
D03*
X017402D02*
D03*
M02*
