M48
;Layer_Color=9474304
;FILE_FORMAT=2:4
INCH,LZ
;TYPE=PLATED
T1F00S00C0.0157
T2F00S00C0.0276
T3F00S00C0.0315
T4F00S00C0.0402
T5F00S00C0.0433
T6F00S00C0.0512
T7F00S00C0.1220
;TYPE=NON_PLATED
T8F00S00C0.1220
%
T01
X014449Y010669
X02199Y02046
X022071Y023346
X010236Y032008
T02
X016378Y02748
X017402
X02154Y02459
X01373Y02833
T03
X004512Y029724
X005512
X006512
X007752Y029736
X008752
X009752
X010752
Y032862
X009752
X008752
X007752
T04
X016142Y001449
Y002449
Y003449
Y004449
Y005449
Y006449
Y007449
Y008449
Y009449
Y010449
Y012449
Y013449
Y014449
T05
X001575Y003882
Y004882
Y007232
Y008231
Y010581
Y011581
Y013931
Y014931
X007386Y015283
Y014283
Y013283
Y012283
Y011283
Y010283
Y009283
Y008283
Y007283
Y006283
Y005283
Y004283
Y003283
Y002283
X013386
Y003283
Y004283
Y005283
Y006283
Y007283
Y008283
Y009283
Y010283
Y011283
Y012283
Y013283
Y014283
Y015283
X016142Y011449
X025787Y013449
Y014449
X02576Y016666
X02476
X02376
X02276
X02176
X02076
X01976
X01876
X01776
X01676
X013386Y016283
Y017283
Y018283
Y019283
Y020283
Y021283
X007386
Y020283
Y019283
Y018283
Y017283
Y016283
X001575Y01728
Y01828
Y02063
Y02163
X002874Y023843
Y024843
Y025843
X002795Y027937
Y028937
X009646Y027787
Y026787
Y025787
Y024787
T06
X018423Y000903
X023541
X025472Y004671
Y006661
Y008661
X025452Y010661
X023541Y011927
X018423
T07
X01676Y021666
X02576
T08
X001575Y001575
X025984
X001575Y03189
X025984
M30
