G04*
G04 #@! TF.GenerationSoftware,Altium Limited,Altium Designer,21.3.2 (30)*
G04*
G04 Layer_Color=32896*
%FSTAX24Y24*%
%MOIN*%
G70*
G04*
G04 #@! TF.SameCoordinates,B2E6FB57-DAF8-471C-B04C-D09EA4292E56*
G04*
G04*
G04 #@! TF.FilePolarity,Positive*
G04*
G01*
G75*
%ADD12C,0.0100*%
D12*
X020094Y009191D02*
Y008791D01*
Y008991D01*
X020694D01*
Y008292D02*
Y008492D01*
X020594Y008592D01*
X020394D01*
X020294Y008492D01*
Y008292D01*
X020394Y008192D01*
X020494D01*
Y008592D01*
X020694Y007992D02*
Y007692D01*
X020594Y007592D01*
X020494Y007692D01*
Y007892D01*
X020394Y007992D01*
X020294Y007892D01*
Y007592D01*
X020194Y007292D02*
X020294D01*
Y007392D01*
Y007192D01*
Y007292D01*
X020594D01*
X020694Y007192D01*
Y006292D02*
X020094D01*
X020294Y006092D01*
X020094Y005892D01*
X020694D01*
X020294Y005592D02*
Y005393D01*
X020394Y005293D01*
X020694D01*
Y005592D01*
X020594Y005692D01*
X020494Y005592D01*
Y005293D01*
X020294Y004693D02*
Y004993D01*
X020394Y005093D01*
X020594D01*
X020694Y004993D01*
Y004693D01*
X020094Y004493D02*
X020694D01*
X020394D01*
X020294Y004393D01*
Y004193D01*
X020394Y004093D01*
X020694D01*
Y003893D02*
Y003693D01*
Y003793D01*
X020294D01*
Y003893D01*
X020694Y003393D02*
X020294D01*
Y003093D01*
X020394Y002993D01*
X020694D01*
Y002494D02*
Y002693D01*
X020594Y002793D01*
X020394D01*
X020294Y002693D01*
Y002494D01*
X020394Y002394D01*
X020494D01*
Y002793D01*
X021054Y009191D02*
X021454D01*
X021654Y008991D01*
X021454Y008791D01*
X021054D01*
X021654Y008292D02*
Y008492D01*
X021554Y008592D01*
X021354D01*
X021254Y008492D01*
Y008292D01*
X021354Y008192D01*
X021454D01*
Y008592D01*
X021254Y007992D02*
X021654D01*
X021454D01*
X021354Y007892D01*
X021254Y007792D01*
Y007692D01*
Y007392D02*
Y007292D01*
X021354D01*
Y007392D01*
X021254D01*
X021554D02*
Y007292D01*
X021654D01*
Y007392D01*
X021554D01*
X021654Y006292D02*
Y006092D01*
Y006192D01*
X021054D01*
X021154Y006292D01*
X021654Y005792D02*
X021554D01*
Y005692D01*
X021654D01*
Y005792D01*
X021154Y005293D02*
X021054Y005193D01*
Y004993D01*
X021154Y004893D01*
X021554D01*
X021654Y004993D01*
Y005193D01*
X021554Y005293D01*
X021154D01*
X021654Y004693D02*
X021554D01*
Y004593D01*
X021654D01*
Y004693D01*
X021154Y004193D02*
X021054Y004093D01*
Y003893D01*
X021154Y003793D01*
X021554D01*
X021654Y003893D01*
Y004093D01*
X021554Y004193D01*
X021154D01*
X022014Y009191D02*
X022613D01*
Y008891D01*
X022513Y008791D01*
X022414D01*
X022314Y008891D01*
Y009191D01*
Y008891D01*
X022214Y008791D01*
X022114D01*
X022014Y008891D01*
Y009191D01*
X022214Y008592D02*
X022513D01*
X022613Y008492D01*
Y008192D01*
X022713D01*
X022813Y008292D01*
Y008392D01*
X022613Y008192D02*
X022214D01*
Y007992D02*
Y007892D01*
X022314D01*
Y007992D01*
X022214D01*
X022513D02*
Y007892D01*
X022613D01*
Y007992D01*
X022513D01*
X022014Y006892D02*
Y006492D01*
Y006692D01*
X022613D01*
X022214Y006292D02*
X022613D01*
X022414D01*
X022314Y006192D01*
X022214Y006092D01*
Y005992D01*
X022613Y005692D02*
Y005493D01*
Y005592D01*
X022214D01*
Y005692D01*
X022613Y004893D02*
Y005093D01*
X022513Y005193D01*
X022314D01*
X022214Y005093D01*
Y004893D01*
X022314Y004793D01*
X022414D01*
Y005193D01*
X022114Y004493D02*
X022214D01*
Y004593D01*
Y004393D01*
Y004493D01*
X022513D01*
X022613Y004393D01*
M02*
