G04*
G04 #@! TF.GenerationSoftware,Altium Limited,Altium Designer,21.3.2 (30)*
G04*
G04 Layer_Color=16711935*
%FSTAX24Y24*%
%MOIN*%
G70*
G04*
G04 #@! TF.SameCoordinates,B2E6FB57-DAF8-471C-B04C-D09EA4292E56*
G04*
G04*
G04 #@! TF.FilePolarity,Positive*
G04*
G01*
G75*
%ADD10C,0.0050*%
%ADD11C,0.0079*%
%ADD66C,0.0039*%
D10*
X01576Y016916D02*
G03*
X01676Y015916I001J0D01*
G01*
X02576D02*
G03*
X02676Y016916I0J001D01*
G01*
Y021666D02*
G03*
X02576Y022666I-001J0D01*
G01*
X01676D02*
G03*
X01576Y021666I0J-001D01*
G01*
X005505Y028807D02*
G03*
X006421Y030218I000051J00097D01*
G01*
X004603D02*
G03*
X005519Y028807I000865J-000441D01*
G01*
X01676Y015916D02*
X02576D01*
X02676Y016916D02*
Y021666D01*
X01676Y022666D02*
X02576D01*
X01576Y016916D02*
Y021666D01*
X004606Y030224D02*
X006417D01*
X007364Y032549D02*
X01114D01*
X007364Y030049D02*
X01114D01*
Y032549D01*
X007364Y030049D02*
Y032549D01*
D11*
X027166Y01658D02*
G03*
X027166Y01658I-000039J0D01*
G01*
X0072Y029724D02*
G03*
X0072Y029724I-000039J0D01*
G01*
X007791Y029317D02*
G03*
X007791Y029317I-000039J0D01*
G01*
X016181Y000593D02*
G03*
X016181Y000593I-000039J0D01*
G01*
D66*
X011806Y028622D02*
Y029252D01*
X012967D01*
Y028622D02*
Y029252D01*
X011806Y028622D02*
X012967D01*
X011806Y028996D02*
X01218Y028622D01*
X019861Y028996D02*
X020235Y028622D01*
X019861D02*
X021022D01*
Y029252D01*
X019861D02*
X021022D01*
X019861Y028622D02*
Y029252D01*
X025231Y028622D02*
Y029252D01*
X026392D01*
Y028622D02*
Y029252D01*
X025231Y028622D02*
X026392D01*
X025231Y028996D02*
X025605Y028622D01*
X022546D02*
Y029252D01*
X023707D01*
Y028622D02*
Y029252D01*
X022546Y028622D02*
X023707D01*
X022546Y028996D02*
X02292Y028622D01*
X017176Y028996D02*
X01755Y028622D01*
X017176D02*
X018337D01*
Y029252D01*
X017176D02*
X018337D01*
X017176Y028622D02*
Y029252D01*
X014491Y028996D02*
X014865Y028622D01*
X014491D02*
X015652D01*
Y029252D01*
X014491D02*
X015652D01*
X014491Y028622D02*
Y029252D01*
X016616Y000848D02*
Y015049D01*
Y000848D02*
Y015049D01*
X015667D02*
X016616D01*
X015667Y000848D02*
Y015049D01*
Y000848D02*
X016616D01*
M02*
