G04*
G04 #@! TF.GenerationSoftware,Altium Limited,Altium Designer,21.3.2 (30)*
G04*
G04 Layer_Color=8421504*
%FSTAX24Y24*%
%MOIN*%
G70*
G04*
G04 #@! TF.SameCoordinates,B2E6FB57-DAF8-471C-B04C-D09EA4292E56*
G04*
G04*
G04 #@! TF.FilePolarity,Positive*
G04*
G01*
G75*
%ADD15R,0.0669X0.0669*%
%ADD16R,0.0591X0.0630*%
%ADD17R,0.0630X0.0591*%
%ADD18R,0.0472X0.0591*%
%ADD19R,0.0591X0.0591*%
%ADD20R,0.0669X0.0669*%
D15*
X00498Y016693D02*
D03*
X003681D02*
D03*
X00498Y003228D02*
D03*
X003681D02*
D03*
X00498Y020059D02*
D03*
X003681D02*
D03*
X00498Y006595D02*
D03*
X003681D02*
D03*
X00498Y009961D02*
D03*
X003681D02*
D03*
X00498Y013327D02*
D03*
X003681D02*
D03*
D16*
X005011Y004901D02*
D03*
X00383D02*
D03*
X005011Y021732D02*
D03*
X00383D02*
D03*
X005011Y015D02*
D03*
X00383D02*
D03*
X005011Y018366D02*
D03*
X00383D02*
D03*
X005011Y008268D02*
D03*
X00383D02*
D03*
X005011Y011634D02*
D03*
X00383D02*
D03*
X005709Y024095D02*
D03*
X004528D02*
D03*
X008071Y026024D02*
D03*
X00689D02*
D03*
X008071Y024095D02*
D03*
X00689D02*
D03*
X00689Y027953D02*
D03*
X008071D02*
D03*
X005709Y026024D02*
D03*
X004528D02*
D03*
X006102Y031693D02*
D03*
X004921D02*
D03*
D17*
X012756Y02748D02*
D03*
Y026299D02*
D03*
X012186Y025197D02*
D03*
Y024016D02*
D03*
X019449Y030827D02*
D03*
Y032008D02*
D03*
X020827Y026299D02*
D03*
Y02748D02*
D03*
X020241Y024016D02*
D03*
Y025197D02*
D03*
X026181Y026299D02*
D03*
Y02748D02*
D03*
X023504Y026299D02*
D03*
Y02748D02*
D03*
X014871Y024016D02*
D03*
Y025197D02*
D03*
X017556Y024016D02*
D03*
Y025197D02*
D03*
X025611Y024016D02*
D03*
Y025197D02*
D03*
X022926Y024016D02*
D03*
Y025197D02*
D03*
X024291Y030827D02*
D03*
Y032008D02*
D03*
X012186Y030827D02*
D03*
Y032008D02*
D03*
X02187Y030827D02*
D03*
Y032008D02*
D03*
X017028Y030827D02*
D03*
Y032008D02*
D03*
X014607Y030827D02*
D03*
Y032008D02*
D03*
X01815Y02748D02*
D03*
Y026299D02*
D03*
X015472Y02748D02*
D03*
Y026299D02*
D03*
D18*
X012012Y028445D02*
D03*
X01276D02*
D03*
X020816D02*
D03*
X020068D02*
D03*
X025438D02*
D03*
X026186D02*
D03*
X022753D02*
D03*
X023501D02*
D03*
X018131D02*
D03*
X017383D02*
D03*
X015446D02*
D03*
X014697D02*
D03*
D19*
X012386Y029429D02*
D03*
X020442D02*
D03*
X025812D02*
D03*
X023127D02*
D03*
X017757D02*
D03*
X015072D02*
D03*
D20*
X023898Y013406D02*
D03*
Y014705D02*
D03*
M02*
