G04*
G04 #@! TF.GenerationSoftware,Altium Limited,Altium Designer,21.3.2 (30)*
G04*
G04 Layer_Physical_Order=2*
G04 Layer_Color=16711680*
%FSTAX24Y24*%
%MOIN*%
G70*
G04*
G04 #@! TF.SameCoordinates,B2E6FB57-DAF8-471C-B04C-D09EA4292E56*
G04*
G04*
G04 #@! TF.FilePolarity,Positive*
G04*
G01*
G75*
%ADD19R,0.0591X0.0591*%
%ADD45C,0.0787*%
%ADD46C,0.0394*%
%ADD47C,0.0197*%
%ADD48C,0.1575*%
%ADD49R,0.0787X0.1181*%
%ADD50O,0.0787X0.1181*%
%ADD51R,0.1181X0.1181*%
%ADD52O,0.1181X0.0709*%
%ADD53R,0.1181X0.0709*%
%ADD54O,0.1181X0.0709*%
%ADD55R,0.1181X0.0709*%
%ADD56O,0.1181X0.0787*%
%ADD57R,0.1181X0.0787*%
%ADD58O,0.0591X0.0787*%
%ADD59R,0.0591X0.0787*%
%ADD60C,0.0709*%
%ADD61C,0.1378*%
%ADD62R,0.1378X0.1378*%
%ADD63C,0.2165*%
%ADD64C,0.0276*%
%ADD65C,0.0433*%
G36*
X025843Y033163D02*
X025685Y033138D01*
X025493Y033076D01*
X025314Y032984D01*
X025151Y032866D01*
X025008Y032723D01*
X02489Y03256D01*
X024798Y032381D01*
X024736Y032189D01*
X024705Y03199D01*
Y031789D01*
X024736Y03159D01*
X024798Y031399D01*
X02489Y031219D01*
X025008Y031056D01*
X025151Y030914D01*
X025314Y030795D01*
X025493Y030704D01*
X025685Y030642D01*
X025884Y03061D01*
X026085D01*
X026284Y030642D01*
X026475Y030704D01*
X026655Y030795D01*
X026818Y030914D01*
X02696Y031056D01*
X027079Y031219D01*
X02717Y031399D01*
X027232Y03159D01*
X027257Y031749D01*
X027307Y031745D01*
Y011877D01*
X027257Y011865D01*
X027225Y011925D01*
X027152Y012015D01*
X026429Y012738D01*
X026339Y012811D01*
X026245Y012862D01*
X026239Y012891D01*
X026242Y012917D01*
X026314Y012955D01*
X026404Y013029D01*
X026478Y013119D01*
X026532Y013222D01*
X026566Y013333D01*
X026578Y013449D01*
X026566Y013565D01*
X026532Y013676D01*
X026478Y013779D01*
X026449Y013813D01*
X026471Y013858D01*
X026575D01*
Y015039D01*
X025816D01*
X025787Y015042D01*
X025199D01*
X02517Y015039D01*
X025D01*
Y015006D01*
X024972Y014997D01*
X024869Y014942D01*
X024779Y014868D01*
X024187Y014276D01*
X024113Y014186D01*
X024058Y014084D01*
X024024Y013972D01*
X024013Y013857D01*
Y013041D01*
X024024Y012925D01*
X024058Y012814D01*
X024113Y012711D01*
X024149Y012667D01*
X024126Y012617D01*
X023591D01*
Y011977D01*
X024231D01*
Y012512D01*
X024278Y012531D01*
X02491Y011898D01*
X025Y011825D01*
X025102Y01177D01*
X025214Y011736D01*
X025329Y011725D01*
X025763D01*
X025894Y011593D01*
X025875Y011547D01*
X024567D01*
Y009776D01*
X025842D01*
X025861Y009729D01*
X025659Y009527D01*
X02556Y009547D01*
X025385D01*
X025214Y009513D01*
X025053Y009446D01*
X024908Y009349D01*
X024784Y009226D01*
X024687Y009081D01*
X024621Y00892D01*
X024587Y008749D01*
Y008574D01*
X024621Y008403D01*
X024687Y008242D01*
X024784Y008097D01*
X024908Y007973D01*
X025053Y007876D01*
X025214Y00781D01*
X025385Y007776D01*
X02556D01*
X025731Y00781D01*
X025892Y007876D01*
X026037Y007973D01*
X026161Y008097D01*
X026257Y008242D01*
X026324Y008403D01*
X026352Y008542D01*
X026679Y008869D01*
X026716Y008888D01*
X026806Y008962D01*
X027152Y009308D01*
X027225Y009398D01*
X027257Y009458D01*
X027307Y009445D01*
Y00172D01*
X027257Y001716D01*
X027232Y001874D01*
X02717Y002066D01*
X027079Y002245D01*
X02696Y002408D01*
X026818Y002551D01*
X026655Y002669D01*
X026475Y002761D01*
X026284Y002823D01*
X026085Y002854D01*
X025884D01*
X025685Y002823D01*
X025493Y002761D01*
X025314Y002669D01*
X025151Y002551D01*
X025008Y002408D01*
X02489Y002245D01*
X024798Y002066D01*
X024736Y001874D01*
X024705Y001675D01*
Y001474D01*
X024736Y001275D01*
X024798Y001084D01*
X02489Y000904D01*
X025008Y000741D01*
X025151Y000599D01*
X025314Y00048D01*
X025493Y000389D01*
X025685Y000327D01*
X025843Y000302D01*
X025839Y000252D01*
X024231D01*
Y000853D01*
X023541D01*
X02285D01*
Y000252D01*
X01921D01*
Y00169D01*
X017635D01*
Y000252D01*
X00172D01*
X001716Y000302D01*
X001874Y000327D01*
X002066Y000389D01*
X002245Y00048D01*
X002408Y000599D01*
X002551Y000741D01*
X002669Y000904D01*
X002761Y001084D01*
X002823Y001275D01*
X002854Y001474D01*
Y001675D01*
X002823Y001874D01*
X002761Y002066D01*
X002669Y002245D01*
X002551Y002408D01*
X002408Y002551D01*
X002245Y002669D01*
X002066Y002761D01*
X001874Y002823D01*
X001675Y002854D01*
X001474D01*
X001275Y002823D01*
X001084Y002761D01*
X000904Y002669D01*
X000741Y002551D01*
X000599Y002408D01*
X00048Y002245D01*
X000389Y002066D01*
X000327Y001874D01*
X000302Y001716D01*
X000252Y00172D01*
Y031745D01*
X000302Y031749D01*
X000327Y03159D01*
X000389Y031399D01*
X00048Y031219D01*
X000599Y031056D01*
X000741Y030914D01*
X000904Y030795D01*
X001084Y030704D01*
X001275Y030642D01*
X001474Y03061D01*
X001675D01*
X001874Y030642D01*
X002066Y030704D01*
X002245Y030795D01*
X002408Y030914D01*
X002551Y031056D01*
X002669Y031219D01*
X002761Y031399D01*
X002823Y03159D01*
X002854Y031789D01*
Y03199D01*
X002823Y032189D01*
X002761Y032381D01*
X002669Y03256D01*
X002551Y032723D01*
X002408Y032866D01*
X002245Y032984D01*
X002066Y033076D01*
X001874Y033138D01*
X001716Y033163D01*
X00172Y033213D01*
X00726D01*
X007289Y033163D01*
X007238Y033075D01*
X007201Y032935D01*
Y032873D01*
X005513Y031184D01*
X005276D01*
X005276Y031184D01*
X005276Y031184D01*
X005212Y031176D01*
X005173Y031171D01*
X005173Y031171D01*
X005173Y031171D01*
X005112Y031146D01*
X005077Y031131D01*
X005077Y031131D01*
X005077Y031131D01*
X005031Y031096D01*
X004995Y031068D01*
X004995Y031068D01*
X004995Y031068D01*
X004836Y030909D01*
X004226D01*
X004124Y030895D01*
X004028Y030856D01*
X003946Y030793D01*
X003503Y03035D01*
X00344Y030268D01*
X0034Y030172D01*
X003387Y030069D01*
Y029416D01*
X003342Y029394D01*
X003309Y029418D01*
X003175Y029474D01*
X003031Y029493D01*
X002559D01*
X002415Y029474D01*
X002281Y029418D01*
X002166Y02933D01*
X002078Y029215D01*
X002022Y029081D01*
X002003Y028937D01*
X002022Y028793D01*
X002078Y028659D01*
X002166Y028544D01*
X002177Y028536D01*
X002161Y028488D01*
X002008D01*
Y027386D01*
X003583D01*
Y027869D01*
X004065Y028351D01*
X004128Y028433D01*
X004167Y028529D01*
X004181Y028632D01*
Y029203D01*
X004226Y029225D01*
X004264Y029196D01*
X004383Y029147D01*
X004512Y02913D01*
X00464Y029147D01*
X00476Y029196D01*
X004863Y029275D01*
X004942Y029378D01*
X004986Y029485D01*
X004986Y029485D01*
X005037D01*
X005038Y029485D01*
X005082Y029378D01*
X005161Y029275D01*
X005264Y029196D01*
X005383Y029147D01*
X005512Y02913D01*
X00564Y029147D01*
X00576Y029196D01*
X005863Y029275D01*
X005942Y029378D01*
X00597Y029445D01*
X00602Y029435D01*
Y029134D01*
X007004D01*
Y030315D01*
X00602D01*
Y030013D01*
X00597Y030003D01*
X005942Y030071D01*
X005863Y030174D01*
X00576Y030253D01*
X00564Y030302D01*
X005512Y030319D01*
X005429Y030308D01*
X005405Y030356D01*
X00544Y03039D01*
X005677D01*
X00578Y030404D01*
X005876Y030443D01*
X005958Y030507D01*
X007622Y032171D01*
X009505Y030288D01*
X009497Y030225D01*
X009414Y030177D01*
X009311Y030075D01*
X009277Y030016D01*
X009227D01*
X009193Y030075D01*
X00909Y030177D01*
X008965Y03025D01*
X008825Y030287D01*
X008679D01*
X008539Y03025D01*
X008414Y030177D01*
X008311Y030075D01*
X008292Y030043D01*
X008244Y030056D01*
Y030228D01*
X00726D01*
Y029244D01*
X008244D01*
Y029417D01*
X008292Y02943D01*
X008311Y029398D01*
X008414Y029295D01*
X008539Y029223D01*
X008679Y029185D01*
X008825D01*
X008965Y029223D01*
X00909Y029295D01*
X009193Y029398D01*
X009227Y029457D01*
X009277D01*
X009311Y029398D01*
X009414Y029295D01*
X009539Y029223D01*
X009679Y029185D01*
X009825D01*
X009965Y029223D01*
X01009Y029295D01*
X010193Y029398D01*
X010266Y029523D01*
X010277Y029566D01*
X010327D01*
X010329Y029561D01*
X010388Y029457D01*
X010473Y029373D01*
X010577Y029313D01*
X010692Y029282D01*
X010702D01*
Y029736D01*
X010752D01*
Y029786D01*
X011206D01*
Y029796D01*
X011175Y029912D01*
X011116Y030015D01*
X011048Y030083D01*
X011069Y030133D01*
X017495D01*
X018713Y028915D01*
Y02789D01*
X018727Y027787D01*
X018766Y027691D01*
X018829Y027609D01*
X021484Y024954D01*
X021469Y024899D01*
X021418Y024885D01*
X021346Y024843D01*
X021287Y024784D01*
X021245Y024712D01*
X021226Y02464D01*
X02154D01*
Y02459D01*
X02159D01*
Y024276D01*
X021662Y024295D01*
X021734Y024337D01*
X021793Y024396D01*
X021835Y024468D01*
X021849Y024519D01*
X021904Y024534D01*
X022363Y024076D01*
Y023599D01*
X022313Y023579D01*
X022277Y023614D01*
X022201Y023658D01*
X022116Y023681D01*
X022027D01*
X021942Y023658D01*
X021918Y023644D01*
X013039D01*
X012962Y023634D01*
X012891Y023604D01*
X012829Y023557D01*
X011269Y021997D01*
X011223Y022016D01*
Y025705D01*
X011223Y025705D01*
X011213Y025782D01*
X011183Y025854D01*
X011136Y025915D01*
X011136Y025915D01*
X010414Y026637D01*
X010425Y026672D01*
X010436Y026787D01*
X010425Y026903D01*
X010391Y027014D01*
X010336Y027117D01*
X010308Y027152D01*
X010329Y027197D01*
X010433D01*
Y028378D01*
X008858D01*
Y027618D01*
X00853Y027289D01*
X008482Y027228D01*
X008452Y027156D01*
X008442Y027079D01*
Y022525D01*
X007752Y021835D01*
X006666D01*
X003665Y024835D01*
X003666Y024843D01*
X003647Y024986D01*
X003592Y02512D01*
X003503Y025236D01*
X003388Y025324D01*
X003282Y025368D01*
Y025422D01*
X003339Y025446D01*
X003434Y025518D01*
X003507Y025613D01*
X003553Y025724D01*
X003562Y025793D01*
X002874D01*
X002186D01*
X002195Y025724D01*
X002241Y025613D01*
X002314Y025518D01*
X002409Y025446D01*
X002466Y025422D01*
Y025368D01*
X00236Y025324D01*
X002245Y025236D01*
X002156Y02512D01*
X002101Y024986D01*
X002082Y024843D01*
X002101Y024699D01*
X002156Y024565D01*
X002245Y024449D01*
X002256Y024441D01*
X00224Y024394D01*
X002087D01*
Y023291D01*
X003661D01*
X003661Y023291D01*
Y023291D01*
X003707Y023277D01*
X005805Y021179D01*
Y016331D01*
X005815Y016254D01*
X005844Y016182D01*
X005892Y01612D01*
X006609Y015403D01*
X006594Y015283D01*
X006613Y01514D01*
X006668Y015005D01*
X006756Y01489D01*
X006857Y014813D01*
X006861Y0148D01*
Y014767D01*
X006857Y014754D01*
X006756Y014677D01*
X006668Y014561D01*
X006613Y014427D01*
X006594Y014283D01*
X006613Y01414D01*
X006668Y014005D01*
X006756Y01389D01*
X006857Y013813D01*
X006861Y0138D01*
Y013767D01*
X006857Y013754D01*
X006756Y013677D01*
X006668Y013561D01*
X006613Y013427D01*
X006594Y013283D01*
X006613Y01314D01*
X006668Y013005D01*
X006756Y01289D01*
X006857Y012813D01*
X006861Y0128D01*
Y012767D01*
X006857Y012754D01*
X006756Y012677D01*
X006668Y012561D01*
X006613Y012427D01*
X006594Y012283D01*
X006613Y01214D01*
X006668Y012005D01*
X006756Y01189D01*
X006857Y011813D01*
X006861Y0118D01*
Y011767D01*
X006857Y011754D01*
X006756Y011677D01*
X006668Y011561D01*
X006613Y011427D01*
X006594Y011283D01*
X006613Y01114D01*
X006668Y011005D01*
X006756Y01089D01*
X006857Y010813D01*
X006861Y0108D01*
Y010767D01*
X006857Y010754D01*
X006756Y010677D01*
X006668Y010561D01*
X006613Y010427D01*
X006594Y010283D01*
X006613Y01014D01*
X006668Y010005D01*
X006756Y00989D01*
X006857Y009813D01*
X006861Y0098D01*
Y009767D01*
X006857Y009754D01*
X006756Y009677D01*
X006668Y009561D01*
X006613Y009427D01*
X006594Y009283D01*
X006613Y00914D01*
X006668Y009005D01*
X006756Y00889D01*
X006857Y008813D01*
X006861Y0088D01*
Y008767D01*
X006857Y008754D01*
X006756Y008677D01*
X006668Y008561D01*
X006613Y008427D01*
X006594Y008283D01*
X006613Y00814D01*
X006668Y008005D01*
X006756Y00789D01*
X006857Y007813D01*
X006861Y0078D01*
Y007767D01*
X006857Y007754D01*
X006756Y007677D01*
X006668Y007561D01*
X006613Y007427D01*
X006594Y007283D01*
X006613Y00714D01*
X006668Y007005D01*
X006756Y00689D01*
X006857Y006813D01*
X006861Y0068D01*
Y006767D01*
X006857Y006754D01*
X006756Y006677D01*
X006668Y006561D01*
X006613Y006427D01*
X006594Y006283D01*
X006613Y00614D01*
X006668Y006005D01*
X006756Y00589D01*
X006857Y005813D01*
X006861Y0058D01*
Y005767D01*
X006857Y005754D01*
X006756Y005677D01*
X006668Y005561D01*
X006613Y005427D01*
X006594Y005283D01*
X006613Y00514D01*
X006668Y005005D01*
X006756Y00489D01*
X006857Y004813D01*
X006861Y0048D01*
Y004767D01*
X006857Y004754D01*
X006756Y004677D01*
X006668Y004561D01*
X006613Y004427D01*
X006594Y004283D01*
X006613Y00414D01*
X006668Y004005D01*
X006756Y00389D01*
X006872Y003802D01*
X006978Y003758D01*
Y003704D01*
X00692Y00368D01*
X006826Y003607D01*
X006753Y003513D01*
X006707Y003402D01*
X006698Y003333D01*
X008074D01*
X008065Y003402D01*
X008019Y003513D01*
X007946Y003607D01*
X007851Y00368D01*
X007794Y003704D01*
Y003758D01*
X0079Y003802D01*
X00801Y003886D01*
X009666D01*
X012384Y001168D01*
X012466Y001105D01*
X012562Y001065D01*
X012665Y001052D01*
X015354D01*
Y000898D01*
X016929D01*
Y002D01*
X016612D01*
X016602Y00205D01*
X016607Y002052D01*
X016702Y002125D01*
X016775Y00222D01*
X016821Y00233D01*
X01683Y002399D01*
X016142D01*
X015454D01*
X015463Y00233D01*
X015509Y00222D01*
X015581Y002125D01*
X015676Y002052D01*
X015681Y00205D01*
X015671Y002D01*
X015354D01*
Y001846D01*
X014031D01*
X014019Y001896D01*
X014103Y002005D01*
X014159Y00214D01*
X014178Y002283D01*
X014159Y002427D01*
X014103Y002561D01*
X014015Y002677D01*
X013914Y002754D01*
X01391Y002767D01*
Y0028D01*
X013914Y002813D01*
X014015Y00289D01*
X014103Y003005D01*
X014159Y00314D01*
X014178Y003283D01*
X014159Y003427D01*
X014103Y003561D01*
X014015Y003677D01*
X013914Y003754D01*
X01391Y003767D01*
Y0038D01*
X013914Y003813D01*
X014015Y00389D01*
X014103Y004005D01*
X014159Y00414D01*
X014178Y004283D01*
X014159Y004427D01*
X014103Y004561D01*
X014015Y004677D01*
X013914Y004754D01*
X01391Y004767D01*
Y0048D01*
X013914Y004813D01*
X014015Y00489D01*
X014103Y005005D01*
X014159Y00514D01*
X014178Y005283D01*
X014159Y005427D01*
X014103Y005561D01*
X014015Y005677D01*
X013914Y005754D01*
X01391Y005767D01*
Y0058D01*
X013914Y005813D01*
X014015Y00589D01*
X014103Y006005D01*
X014159Y00614D01*
X014178Y006283D01*
X014159Y006427D01*
X014103Y006561D01*
X014015Y006677D01*
X013914Y006754D01*
X01391Y006767D01*
Y0068D01*
X013914Y006813D01*
X013991Y006872D01*
X014952Y00591D01*
Y003699D01*
X014962Y003622D01*
X014992Y00355D01*
X015039Y003488D01*
X015289Y003238D01*
X015289Y003238D01*
X015351Y003191D01*
X015423Y003161D01*
X015432Y00316D01*
X015512Y003056D01*
X015628Y002967D01*
X015734Y002923D01*
Y002869D01*
X015676Y002846D01*
X015581Y002773D01*
X015509Y002678D01*
X015463Y002567D01*
X015454Y002499D01*
X016142D01*
X01683D01*
X016821Y002567D01*
X016775Y002678D01*
X016702Y002773D01*
X016607Y002846D01*
X01655Y002869D01*
Y002923D01*
X016656Y002967D01*
X016771Y003056D01*
X016859Y003171D01*
X016915Y003305D01*
X016934Y003449D01*
X016915Y003593D01*
X016859Y003727D01*
X016771Y003842D01*
X01667Y003919D01*
X016666Y003933D01*
Y003965D01*
X01667Y003978D01*
X016771Y004056D01*
X016859Y004171D01*
X016915Y004305D01*
X016934Y004449D01*
X016915Y004593D01*
X016859Y004727D01*
X016771Y004842D01*
X01667Y004919D01*
X016666Y004933D01*
Y004965D01*
X01667Y004978D01*
X016771Y005056D01*
X016859Y005171D01*
X016915Y005305D01*
X016934Y005449D01*
X016915Y005593D01*
X016859Y005727D01*
X016771Y005842D01*
X01667Y005919D01*
X016666Y005933D01*
Y005965D01*
X01667Y005978D01*
X016771Y006056D01*
X016859Y006171D01*
X016915Y006305D01*
X016934Y006449D01*
X016915Y006593D01*
X016859Y006727D01*
X016771Y006842D01*
X01667Y006919D01*
X016666Y006933D01*
Y006965D01*
X01667Y006978D01*
X016771Y007056D01*
X016859Y007171D01*
X016915Y007305D01*
X016934Y007449D01*
X016915Y007593D01*
X016859Y007727D01*
X016771Y007842D01*
X01667Y007919D01*
X016666Y007933D01*
Y007965D01*
X01667Y007978D01*
X016771Y008056D01*
X016859Y008171D01*
X016915Y008305D01*
X016934Y008449D01*
X016915Y008593D01*
X016859Y008727D01*
X016771Y008842D01*
X01667Y008919D01*
X016666Y008933D01*
Y008965D01*
X01667Y008978D01*
X016771Y009056D01*
X016859Y009171D01*
X016915Y009305D01*
X016934Y009449D01*
X016915Y009593D01*
X016899Y00963D01*
X017297Y010028D01*
X017297Y010028D01*
X017345Y01009D01*
X017374Y010162D01*
X017384Y010239D01*
Y012717D01*
X017374Y012794D01*
X017345Y012865D01*
X017297Y012927D01*
X017297Y012927D01*
X016915Y013309D01*
X016934Y013449D01*
X016915Y013593D01*
X016859Y013727D01*
X016771Y013842D01*
X01667Y013919D01*
X016666Y013933D01*
Y013965D01*
X01667Y013978D01*
X016771Y014056D01*
X016859Y014171D01*
X016915Y014305D01*
X016934Y014449D01*
X016915Y014593D01*
X016859Y014727D01*
X016771Y014842D01*
X016656Y01493D01*
X016522Y014986D01*
X016378Y015005D01*
X015906D01*
X015762Y014986D01*
X015628Y01493D01*
X015512Y014842D01*
X015439Y014747D01*
X014845D01*
X014768Y014736D01*
X014696Y014707D01*
X014635Y014659D01*
X014635Y014659D01*
X014557Y014581D01*
X014088D01*
X014015Y014677D01*
X013914Y014754D01*
X01391Y014767D01*
Y0148D01*
X013914Y014813D01*
X014015Y01489D01*
X014103Y015005D01*
X014159Y01514D01*
X014178Y015283D01*
X014159Y015427D01*
X014103Y015561D01*
X014015Y015677D01*
X013914Y015754D01*
X01391Y015767D01*
Y0158D01*
X013914Y015813D01*
X014015Y01589D01*
X014088Y015986D01*
X015577D01*
X015993Y01557D01*
X016054Y015523D01*
X016126Y015493D01*
X016165Y015488D01*
X016203Y015483D01*
X016203Y015483D01*
X018071D01*
X018148Y015493D01*
X01822Y015523D01*
X018281Y01557D01*
X018609Y015898D01*
X018644Y015887D01*
X01876Y015876D01*
X018876Y015887D01*
X018987Y015921D01*
X019089Y015976D01*
X019179Y01605D01*
X019228Y016109D01*
X019292D01*
X01934Y01605D01*
X01943Y015976D01*
X019533Y015921D01*
X019644Y015887D01*
X01976Y015876D01*
X019876Y015887D01*
X019987Y015921D01*
X020089Y015976D01*
X020179Y01605D01*
X020253Y01614D01*
X020285Y016199D01*
X020289Y016201D01*
X020343Y016202D01*
X020408Y016117D01*
X020511Y016038D01*
X020631Y015988D01*
X02071Y015978D01*
Y016666D01*
Y017355D01*
X020631Y017344D01*
X020511Y017294D01*
X020408Y017215D01*
X020343Y017131D01*
X020289Y017132D01*
X020285Y017134D01*
X020253Y017193D01*
X020179Y017283D01*
X020089Y017357D01*
X019987Y017411D01*
X019876Y017445D01*
X01976Y017457D01*
X019644Y017445D01*
X019609Y017435D01*
X019281Y017763D01*
X01922Y01781D01*
X019148Y01784D01*
X019071Y01785D01*
X016474D01*
X016474Y01785D01*
X016436Y017845D01*
X016397Y01784D01*
X016326Y01781D01*
X016264Y017763D01*
X016082Y017581D01*
X014088D01*
X014015Y017677D01*
X013914Y017754D01*
X01391Y017767D01*
Y0178D01*
X013914Y017813D01*
X014015Y01789D01*
X014103Y018005D01*
X014159Y01814D01*
X014178Y018283D01*
X014159Y018427D01*
X014103Y018561D01*
X014015Y018677D01*
X013914Y018754D01*
X01391Y018767D01*
Y0188D01*
X013914Y018813D01*
X014015Y01889D01*
X014103Y019005D01*
X014159Y01914D01*
X014178Y019283D01*
X014159Y019427D01*
X014103Y019561D01*
X014015Y019677D01*
X0139Y019765D01*
X013794Y019809D01*
Y019863D01*
X013851Y019887D01*
X013946Y019959D01*
X014019Y020054D01*
X014065Y020165D01*
X014074Y020233D01*
X013386D01*
Y020333D01*
X014074D01*
X014065Y020402D01*
X014019Y020513D01*
X013946Y020607D01*
X013851Y02068D01*
X013794Y020704D01*
Y020758D01*
X0139Y020802D01*
X014015Y02089D01*
X014103Y021005D01*
X014159Y02114D01*
X014178Y021283D01*
X014176Y021295D01*
X014221Y021318D01*
X015289Y020249D01*
X015289Y020249D01*
X015351Y020202D01*
X015423Y020172D01*
X0155Y020162D01*
X0155Y020162D01*
X021837D01*
X021861Y020148D01*
X021946Y020125D01*
X022034D01*
X022119Y020148D01*
X022195Y020192D01*
X022258Y020255D01*
X022302Y020331D01*
X022313Y020371D01*
X022363Y020365D01*
Y017301D01*
X02234Y017283D01*
X022292Y017224D01*
X022228D01*
X022179Y017283D01*
X02209Y017357D01*
X021987Y017411D01*
X021876Y017445D01*
X02176Y017457D01*
X021644Y017445D01*
X021533Y017411D01*
X02143Y017357D01*
X02134Y017283D01*
X021266Y017193D01*
X021235Y017134D01*
X02123Y017132D01*
X021177Y017131D01*
X021112Y017215D01*
X021009Y017294D01*
X020889Y017344D01*
X02081Y017355D01*
Y016666D01*
Y015978D01*
X020889Y015988D01*
X021009Y016038D01*
X021112Y016117D01*
X021177Y016202D01*
X02123Y016201D01*
X021235Y016199D01*
X021266Y01614D01*
X02134Y01605D01*
X02143Y015976D01*
X021533Y015921D01*
X021644Y015887D01*
X021664Y015886D01*
X021681Y015838D01*
X018556Y012714D01*
X017635D01*
Y011559D01*
X017632Y011533D01*
X017635Y011507D01*
Y011139D01*
X018003D01*
X018029Y011136D01*
X018055Y011139D01*
X01921D01*
Y012245D01*
X02285Y015885D01*
X022876Y015887D01*
X022987Y015921D01*
X023089Y015976D01*
X023179Y01605D01*
X023228Y016109D01*
X023292D01*
X02334Y01605D01*
X02343Y015976D01*
X023533Y015921D01*
X023644Y015887D01*
X02376Y015876D01*
X023876Y015887D01*
X023987Y015921D01*
X02409Y015976D01*
X024179Y01605D01*
X024228Y016109D01*
X024292D01*
X02434Y01605D01*
X02443Y015976D01*
X024533Y015921D01*
X024644Y015887D01*
X02476Y015876D01*
X024876Y015887D01*
X024987Y015921D01*
X025089Y015976D01*
X025124Y016004D01*
X025169Y015983D01*
Y015879D01*
X02635D01*
Y017454D01*
X025169D01*
Y01735D01*
X025124Y017328D01*
X025089Y017357D01*
X024987Y017411D01*
X024876Y017445D01*
X02476Y017457D01*
X024644Y017445D01*
X024533Y017411D01*
X02443Y017357D01*
X02434Y017283D01*
X024292Y017224D01*
X024228D01*
X024179Y017283D01*
X02409Y017357D01*
X024058Y017374D01*
Y0262D01*
X024058Y0262D01*
X024047Y026277D01*
X024018Y026349D01*
X02397Y026411D01*
X017966Y032415D01*
X017904Y032463D01*
X017832Y032492D01*
X017755Y032503D01*
X014105D01*
X014028Y032492D01*
X013956Y032463D01*
X013894Y032415D01*
X013894Y032415D01*
X013785Y032306D01*
X01099D01*
X010977Y032356D01*
X01109Y032421D01*
X011193Y032524D01*
X011266Y032649D01*
X011303Y03279D01*
Y032935D01*
X011266Y033075D01*
X011215Y033163D01*
X011244Y033213D01*
X025839D01*
X025843Y033163D01*
D02*
G37*
%LPC*%
G36*
X011206Y029686D02*
X010802D01*
Y029282D01*
X010812D01*
X010927Y029313D01*
X011031Y029373D01*
X011116Y029457D01*
X011175Y029561D01*
X011206Y029676D01*
Y029686D01*
D02*
G37*
G36*
X01378Y028644D02*
Y02838D01*
X014044D01*
X014025Y028452D01*
X013983Y028524D01*
X013924Y028583D01*
X013852Y028625D01*
X01378Y028644D01*
D02*
G37*
G36*
X01368D02*
X013608Y028625D01*
X013536Y028583D01*
X013477Y028524D01*
X013435Y028452D01*
X013416Y02838D01*
X01368D01*
Y028644D01*
D02*
G37*
G36*
X014044Y02828D02*
X01378D01*
Y028016D01*
X013852Y028035D01*
X013924Y028077D01*
X013983Y028136D01*
X014025Y028208D01*
X014044Y02828D01*
D02*
G37*
G36*
X01368D02*
X013416D01*
X013435Y028208D01*
X013477Y028136D01*
X013536Y028077D01*
X013608Y028035D01*
X01368Y028016D01*
Y02828D01*
D02*
G37*
G36*
X017452Y027795D02*
Y02753D01*
X017716D01*
X017697Y027602D01*
X017655Y027675D01*
X017596Y027734D01*
X017524Y027775D01*
X017452Y027795D01*
D02*
G37*
G36*
X017352D02*
X017279Y027775D01*
X017207Y027734D01*
X017148Y027675D01*
X017107Y027602D01*
X017087Y02753D01*
X017352D01*
Y027795D01*
D02*
G37*
G36*
X016428D02*
Y02753D01*
X016692D01*
X016673Y027602D01*
X016631Y027675D01*
X016572Y027734D01*
X0165Y027775D01*
X016428Y027795D01*
D02*
G37*
G36*
X016328D02*
X016256Y027775D01*
X016184Y027734D01*
X016125Y027675D01*
X016083Y027602D01*
X016064Y02753D01*
X016328D01*
Y027795D01*
D02*
G37*
G36*
X017716Y02743D02*
X017452D01*
Y027166D01*
X017524Y027185D01*
X017596Y027227D01*
X017655Y027286D01*
X017697Y027358D01*
X017716Y02743D01*
D02*
G37*
G36*
X017352D02*
X017087D01*
X017107Y027358D01*
X017148Y027286D01*
X017207Y027227D01*
X017279Y027185D01*
X017352Y027166D01*
Y02743D01*
D02*
G37*
G36*
X016692D02*
X016428D01*
Y027166D01*
X0165Y027185D01*
X016572Y027227D01*
X016631Y027286D01*
X016673Y027358D01*
X016692Y02743D01*
D02*
G37*
G36*
X016328D02*
X016064D01*
X016083Y027358D01*
X016125Y027286D01*
X016184Y027227D01*
X016256Y027185D01*
X016328Y027166D01*
Y02743D01*
D02*
G37*
G36*
X00311Y026301D02*
X002924D01*
Y025893D01*
X003562D01*
X003553Y025961D01*
X003507Y026072D01*
X003434Y026167D01*
X003339Y026239D01*
X003229Y026285D01*
X00311Y026301D01*
D02*
G37*
G36*
X002824D02*
X002638D01*
X002519Y026285D01*
X002409Y026239D01*
X002314Y026167D01*
X002241Y026072D01*
X002195Y025961D01*
X002186Y025893D01*
X002824D01*
Y026301D01*
D02*
G37*
G36*
X02149Y02454D02*
X021226D01*
X021245Y024468D01*
X021287Y024396D01*
X021346Y024337D01*
X021418Y024295D01*
X02149Y024276D01*
Y02454D01*
D02*
G37*
G36*
X025857Y022651D02*
X025663D01*
X025473Y022613D01*
X025294Y022539D01*
X025132Y022431D01*
X024995Y022294D01*
X024888Y022133D01*
X024813Y021953D01*
X024776Y021763D01*
Y021569D01*
X024813Y021379D01*
X024888Y0212D01*
X024995Y021039D01*
X025132Y020902D01*
X025294Y020794D01*
X025473Y02072D01*
X025663Y020682D01*
X025857D01*
X026047Y02072D01*
X026226Y020794D01*
X026387Y020902D01*
X026524Y021039D01*
X026632Y0212D01*
X026706Y021379D01*
X026744Y021569D01*
Y021763D01*
X026706Y021953D01*
X026632Y022133D01*
X026524Y022294D01*
X026387Y022431D01*
X026226Y022539D01*
X026047Y022613D01*
X025857Y022651D01*
D02*
G37*
G36*
X002362Y022181D02*
X000787D01*
Y021079D01*
X001104D01*
X001114Y021029D01*
X001109Y021027D01*
X001015Y020954D01*
X000942Y020859D01*
X000896Y020749D01*
X000887Y02068D01*
X001575D01*
X002263D01*
X002254Y020749D01*
X002208Y020859D01*
X002135Y020954D01*
X00204Y021027D01*
X002035Y021029D01*
X002045Y021079D01*
X002362D01*
Y022181D01*
D02*
G37*
G36*
X002263Y02058D02*
X001625D01*
Y020172D01*
X001811D01*
X00193Y020187D01*
X00204Y020233D01*
X002135Y020306D01*
X002208Y020401D01*
X002254Y020511D01*
X002263Y02058D01*
D02*
G37*
G36*
X001525D02*
X000887D01*
X000896Y020511D01*
X000942Y020401D01*
X001015Y020306D01*
X001109Y020233D01*
X00122Y020187D01*
X001339Y020172D01*
X001525D01*
Y02058D01*
D02*
G37*
G36*
X002362Y018832D02*
X000787D01*
Y017729D01*
X001104D01*
X001114Y017679D01*
X001109Y017677D01*
X001015Y017604D01*
X000942Y017509D01*
X000896Y017399D01*
X000887Y01733D01*
X001575D01*
X002263D01*
X002254Y017399D01*
X002208Y017509D01*
X002135Y017604D01*
X00204Y017677D01*
X002035Y017679D01*
X002045Y017729D01*
X002362D01*
Y018832D01*
D02*
G37*
G36*
X002263Y01723D02*
X001625D01*
Y016822D01*
X001811D01*
X00193Y016838D01*
X00204Y016883D01*
X002135Y016956D01*
X002208Y017051D01*
X002254Y017162D01*
X002263Y01723D01*
D02*
G37*
G36*
X001525D02*
X000887D01*
X000896Y017162D01*
X000942Y017051D01*
X001015Y016956D01*
X001109Y016883D01*
X00122Y016838D01*
X001339Y016822D01*
X001525D01*
Y01723D01*
D02*
G37*
G36*
X002362Y015482D02*
X000787D01*
Y01438D01*
X001104D01*
X001114Y01433D01*
X001109Y014328D01*
X001015Y014255D01*
X000942Y01416D01*
X000896Y014049D01*
X000887Y013981D01*
X001575D01*
X002263D01*
X002254Y014049D01*
X002208Y01416D01*
X002135Y014255D01*
X00204Y014328D01*
X002035Y01433D01*
X002045Y01438D01*
X002362D01*
Y015482D01*
D02*
G37*
G36*
X002263Y013881D02*
X001625D01*
Y013472D01*
X001811D01*
X00193Y013488D01*
X00204Y013534D01*
X002135Y013607D01*
X002208Y013702D01*
X002254Y013812D01*
X002263Y013881D01*
D02*
G37*
G36*
X001525D02*
X000887D01*
X000896Y013812D01*
X000942Y013702D01*
X001015Y013607D01*
X001109Y013534D01*
X00122Y013488D01*
X001339Y013472D01*
X001525D01*
Y013881D01*
D02*
G37*
G36*
X023491Y012617D02*
X02285D01*
Y011977D01*
X023491D01*
Y012617D01*
D02*
G37*
G36*
X024231Y011877D02*
X023591D01*
Y011236D01*
X024231D01*
Y011877D01*
D02*
G37*
G36*
X023491D02*
X02285D01*
Y011236D01*
X023491D01*
Y011877D01*
D02*
G37*
G36*
X002362Y012132D02*
X000787D01*
Y01103D01*
X001104D01*
X001114Y01098D01*
X001109Y010978D01*
X001015Y010905D01*
X000942Y01081D01*
X000896Y0107D01*
X000887Y010631D01*
X001575D01*
X002263D01*
X002254Y0107D01*
X002208Y01081D01*
X002135Y010905D01*
X00204Y010978D01*
X002035Y01098D01*
X002045Y01103D01*
X002362D01*
Y012132D01*
D02*
G37*
G36*
X002263Y010531D02*
X001625D01*
Y010123D01*
X001811D01*
X00193Y010138D01*
X00204Y010184D01*
X002135Y010257D01*
X002208Y010352D01*
X002254Y010462D01*
X002263Y010531D01*
D02*
G37*
G36*
X001525D02*
X000887D01*
X000896Y010462D01*
X000942Y010352D01*
X001015Y010257D01*
X001109Y010184D01*
X00122Y010138D01*
X001339Y010123D01*
X001525D01*
Y010531D01*
D02*
G37*
G36*
X002362Y008783D02*
X000787D01*
Y00768D01*
X001104D01*
X001114Y00763D01*
X001109Y007628D01*
X001015Y007556D01*
X000942Y007461D01*
X000896Y00735D01*
X000887Y007282D01*
X001575D01*
X002263D01*
X002254Y00735D01*
X002208Y007461D01*
X002135Y007556D01*
X00204Y007628D01*
X002035Y00763D01*
X002045Y00768D01*
X002362D01*
Y008783D01*
D02*
G37*
G36*
X002263Y007182D02*
X001625D01*
Y006773D01*
X001811D01*
X00193Y006789D01*
X00204Y006835D01*
X002135Y006907D01*
X002208Y007002D01*
X002254Y007113D01*
X002263Y007182D01*
D02*
G37*
G36*
X001525D02*
X000887D01*
X000896Y007113D01*
X000942Y007002D01*
X001015Y006907D01*
X001109Y006835D01*
X00122Y006789D01*
X001339Y006773D01*
X001525D01*
Y007182D01*
D02*
G37*
G36*
X02556Y007547D02*
X025385D01*
X025214Y007513D01*
X025053Y007446D01*
X024908Y007349D01*
X024784Y007226D01*
X024687Y007081D01*
X024621Y00692D01*
X024587Y006749D01*
Y006574D01*
X024621Y006403D01*
X024687Y006242D01*
X024784Y006097D01*
X024908Y005973D01*
X025053Y005876D01*
X025214Y00581D01*
X025385Y005776D01*
X02556D01*
X025731Y00581D01*
X025892Y005876D01*
X026037Y005973D01*
X026161Y006097D01*
X026257Y006242D01*
X026324Y006403D01*
X026358Y006574D01*
Y006749D01*
X026324Y00692D01*
X026257Y007081D01*
X026161Y007226D01*
X026037Y007349D01*
X025892Y007446D01*
X025731Y007513D01*
X02556Y007547D01*
D02*
G37*
G36*
X02555Y00546D02*
X025522D01*
Y004721D01*
X026261D01*
Y004749D01*
X026231Y004902D01*
X026172Y005045D01*
X026085Y005174D01*
X025975Y005284D01*
X025846Y005371D01*
X025703Y00543D01*
X02555Y00546D01*
D02*
G37*
G36*
X025422D02*
X025395D01*
X025242Y00543D01*
X025099Y005371D01*
X024969Y005284D01*
X02486Y005174D01*
X024773Y005045D01*
X024714Y004902D01*
X024683Y004749D01*
Y004721D01*
X025422D01*
Y00546D01*
D02*
G37*
G36*
X002362Y005433D02*
X000787D01*
Y004331D01*
X001104D01*
X001114Y004281D01*
X001109Y004279D01*
X001015Y004206D01*
X000942Y004111D01*
X000896Y004D01*
X000887Y003932D01*
X001575D01*
X002263D01*
X002254Y004D01*
X002208Y004111D01*
X002135Y004206D01*
X00204Y004279D01*
X002035Y004281D01*
X002045Y004331D01*
X002362D01*
Y005433D01*
D02*
G37*
G36*
X026261Y004621D02*
X025522D01*
Y003882D01*
X02555D01*
X025703Y003913D01*
X025846Y003972D01*
X025975Y004059D01*
X026085Y004168D01*
X026172Y004298D01*
X026231Y004441D01*
X026261Y004594D01*
Y004621D01*
D02*
G37*
G36*
X025422D02*
X024683D01*
Y004594D01*
X024714Y004441D01*
X024773Y004298D01*
X02486Y004168D01*
X024969Y004059D01*
X025099Y003972D01*
X025242Y003913D01*
X025395Y003882D01*
X025422D01*
Y004621D01*
D02*
G37*
G36*
X002263Y003832D02*
X001625D01*
Y003424D01*
X001811D01*
X00193Y003439D01*
X00204Y003485D01*
X002135Y003558D01*
X002208Y003653D01*
X002254Y003763D01*
X002263Y003832D01*
D02*
G37*
G36*
X001525D02*
X000887D01*
X000896Y003763D01*
X000942Y003653D01*
X001015Y003558D01*
X001109Y003485D01*
X00122Y003439D01*
X001339Y003424D01*
X001525D01*
Y003832D01*
D02*
G37*
G36*
X008074Y003233D02*
X006698D01*
X006707Y003165D01*
X006753Y003054D01*
X006826Y002959D01*
X00692Y002887D01*
X006978Y002863D01*
Y002809D01*
X006872Y002765D01*
X006756Y002677D01*
X006668Y002561D01*
X006613Y002427D01*
X006594Y002283D01*
X006613Y00214D01*
X006668Y002005D01*
X006756Y00189D01*
X006872Y001802D01*
X007006Y001746D01*
X00715Y001728D01*
X007622D01*
X007766Y001746D01*
X0079Y001802D01*
X008015Y00189D01*
X008104Y002005D01*
X008159Y00214D01*
X008178Y002283D01*
X008159Y002427D01*
X008104Y002561D01*
X008015Y002677D01*
X0079Y002765D01*
X007794Y002809D01*
Y002863D01*
X007851Y002887D01*
X007946Y002959D01*
X008019Y003054D01*
X008065Y003165D01*
X008074Y003233D01*
D02*
G37*
G36*
X024231Y001594D02*
X023591D01*
Y000953D01*
X024231D01*
Y001594D01*
D02*
G37*
G36*
X023491D02*
X02285D01*
Y000953D01*
X023491D01*
Y001594D01*
D02*
G37*
%LPD*%
D19*
X007752Y029736D02*
D03*
D45*
X023541Y00274D02*
Y011927D01*
Y000903D02*
Y00274D01*
X016142Y002449D02*
X021995D01*
X023541Y000903D01*
X025632Y008661D02*
X026353Y009382D01*
X026386D02*
X026732Y009728D01*
Y011595D01*
X025472Y008661D02*
X025632D01*
X026009Y012318D02*
X026732Y011595D01*
X025329Y012318D02*
X026009D01*
X024606Y013041D02*
X025329Y012318D01*
X024606Y013041D02*
Y013857D01*
X026353Y009382D02*
X026386D01*
X025199Y014449D02*
X025787D01*
X024606Y013857D02*
X025199Y014449D01*
X023541Y00274D02*
X025472Y004671D01*
D46*
X001575Y003882D02*
X006466D01*
X007064Y003283D02*
X007386D01*
X006466Y003882D02*
X007064Y003283D01*
X001073Y02063D02*
X001575D01*
X000591Y021113D02*
Y023898D01*
Y021113D02*
X001073Y02063D01*
X000591Y023898D02*
X002535Y025843D01*
X002874D01*
X012324Y029736D02*
X01373Y02833D01*
X010752Y029736D02*
X012324D01*
X01373Y02833D02*
X015528D01*
X018066Y026895D02*
X018644Y026317D01*
Y025856D02*
Y026317D01*
Y025856D02*
X01991Y02459D01*
X023541Y011927D02*
X023934Y01232D01*
X01991Y02459D02*
X02154D01*
X017402Y02748D02*
X017987Y026895D01*
X018066D01*
X016378Y02748D02*
X017402D01*
X015528Y02833D02*
X016378Y02748D01*
X022684Y016288D02*
X02276Y016363D01*
X022684Y016281D02*
Y016288D01*
X018777Y011848D02*
Y012373D01*
X022684Y016281D01*
X02276Y016363D02*
Y02424D01*
X007812Y032732D02*
Y032802D01*
X007622Y032732D02*
X007752Y032862D01*
X007812Y032802D01*
Y032542D02*
X009824Y03053D01*
X01766D01*
X005677Y030787D02*
X007622Y032732D01*
X007812Y032542D02*
Y032732D01*
X018029Y011533D02*
X018381Y011885D01*
X01766Y03053D02*
X01911Y02908D01*
Y02789D02*
Y02908D01*
Y02789D02*
X02276Y02424D01*
X002795Y027937D02*
X003089D01*
X003784Y028632D01*
Y030069D01*
X004226Y030512D01*
X005D01*
X005276Y030787D01*
X005677D01*
X012665Y001449D02*
X016142D01*
X00983Y004283D02*
X012665Y001449D01*
X007386Y004283D02*
X00983D01*
D47*
X002874Y024843D02*
X003236D01*
X0065Y021579D01*
Y016933D02*
Y021579D01*
Y016933D02*
X00715Y016283D01*
X007386D01*
X002874Y023843D02*
X003562D01*
X006102Y021302D01*
Y016331D02*
Y021302D01*
Y016331D02*
X00715Y015283D01*
X007386D01*
X013386Y014283D02*
X01468D01*
X014845Y014449D01*
X016142D01*
Y013449D02*
X016354D01*
X017087Y012717D01*
Y010239D02*
Y012717D01*
X016297Y009449D02*
X017087Y010239D01*
X016142Y009449D02*
X016297D01*
X015906Y006449D02*
X016142D01*
X014449Y007906D02*
X015906Y006449D01*
X014449Y007906D02*
Y010669D01*
X015175Y012449D02*
X016142D01*
X01434Y013283D02*
X015175Y012449D01*
X013386Y013283D02*
X01434D01*
X007386Y020283D02*
X007748D01*
X009646Y022181D01*
Y024787D01*
X007386Y018283D02*
X007622D01*
X009016Y019677D01*
Y019879D01*
X010925Y021789D01*
Y025705D01*
X009843Y026787D02*
X010925Y025705D01*
X009646Y026787D02*
X009843D01*
X007386Y019283D02*
X007622D01*
X010531Y022193D01*
Y025098D01*
X009843Y025787D02*
X010531Y025098D01*
X009646Y025787D02*
X009843D01*
X007386Y021283D02*
X007622D01*
X00874Y022402D01*
Y027079D01*
X009449Y027787D01*
X009646D01*
X01538Y010449D02*
X016142D01*
X014545Y011283D02*
X01538Y010449D01*
X013386Y011283D02*
X014545D01*
X01275Y015283D02*
X013386D01*
X01249Y015543D02*
X01275Y015283D01*
X01249Y015543D02*
Y02159D01*
X012833Y021933D01*
X014027D01*
X0155Y02046D01*
X02199D01*
X007386Y011283D02*
X007543D01*
X009409Y01315D01*
Y019716D01*
X013039Y023346D01*
X022071D01*
X013908Y032008D02*
X014105Y032205D01*
X010236Y032008D02*
X013908D01*
X014105Y032205D02*
X017755D01*
X02376Y0262D01*
Y016666D02*
Y0262D01*
X013386Y007283D02*
X014D01*
X01525Y006033D01*
Y003699D02*
Y006033D01*
Y003699D02*
X0155Y003449D01*
X016142D01*
X013386Y017283D02*
X016206D01*
X016474Y017552D01*
X019071D01*
X01976Y016863D01*
Y016666D02*
Y016863D01*
X013386Y016283D02*
X0157D01*
X016203Y015781D01*
X018071D01*
X01876Y016469D01*
Y016666D01*
D48*
X02576Y021666D02*
D03*
X01676D02*
D03*
D49*
X02576Y016666D02*
D03*
D50*
X02476D02*
D03*
X02376D02*
D03*
X02276D02*
D03*
X02176D02*
D03*
X01676D02*
D03*
X01776D02*
D03*
X01876D02*
D03*
X01976D02*
D03*
X02076D02*
D03*
D51*
X023541Y000903D02*
D03*
Y011927D02*
D03*
X018423Y000903D02*
D03*
Y011927D02*
D03*
D52*
X013386Y002283D02*
D03*
Y003283D02*
D03*
Y004283D02*
D03*
Y005283D02*
D03*
Y006283D02*
D03*
Y007283D02*
D03*
Y008283D02*
D03*
Y009283D02*
D03*
Y010283D02*
D03*
Y011283D02*
D03*
Y012283D02*
D03*
Y013283D02*
D03*
Y014283D02*
D03*
Y015283D02*
D03*
Y016283D02*
D03*
Y017283D02*
D03*
Y018283D02*
D03*
Y019283D02*
D03*
Y020283D02*
D03*
Y021283D02*
D03*
X007386Y002283D02*
D03*
Y003283D02*
D03*
Y004283D02*
D03*
Y005283D02*
D03*
Y006283D02*
D03*
Y007283D02*
D03*
Y008283D02*
D03*
Y009283D02*
D03*
Y010283D02*
D03*
Y011283D02*
D03*
Y012283D02*
D03*
Y013283D02*
D03*
Y014283D02*
D03*
Y015283D02*
D03*
Y016283D02*
D03*
Y017283D02*
D03*
Y018283D02*
D03*
Y019283D02*
D03*
Y020283D02*
D03*
X002874Y024843D02*
D03*
Y025843D02*
D03*
X002795Y028937D02*
D03*
D53*
X007386Y021283D02*
D03*
X002874Y023843D02*
D03*
X002795Y027937D02*
D03*
D54*
X001575Y007232D02*
D03*
Y003882D02*
D03*
Y013931D02*
D03*
Y02063D02*
D03*
Y01728D02*
D03*
Y010581D02*
D03*
X016142Y014449D02*
D03*
Y013449D02*
D03*
Y012449D02*
D03*
Y010449D02*
D03*
Y009449D02*
D03*
Y008449D02*
D03*
Y007449D02*
D03*
Y006449D02*
D03*
Y005449D02*
D03*
Y004449D02*
D03*
Y003449D02*
D03*
Y002449D02*
D03*
D55*
X001575Y008231D02*
D03*
Y004882D02*
D03*
Y014931D02*
D03*
Y02163D02*
D03*
Y01828D02*
D03*
Y011581D02*
D03*
X016142Y001449D02*
D03*
D56*
X009646Y024787D02*
D03*
Y026787D02*
D03*
Y025787D02*
D03*
X025787Y013449D02*
D03*
X016142Y011449D02*
D03*
D57*
X009646Y027787D02*
D03*
X025787Y014449D02*
D03*
D58*
X004512Y029724D02*
D03*
X005512D02*
D03*
D59*
X006512D02*
D03*
D60*
X007752Y032862D02*
D03*
X008752D02*
D03*
X009752D02*
D03*
X010752D02*
D03*
Y029736D02*
D03*
X009752D02*
D03*
X008752D02*
D03*
D61*
X025472Y004671D02*
D03*
Y006661D02*
D03*
Y008661D02*
D03*
D62*
X025452Y010661D02*
D03*
D63*
X001575Y03189D02*
D03*
X025984Y001575D02*
D03*
Y03189D02*
D03*
X001575Y001575D02*
D03*
D64*
X014449Y010669D02*
D03*
X02199Y02046D02*
D03*
X022071Y023346D02*
D03*
X010236Y032008D02*
D03*
D65*
X01373Y02833D02*
D03*
X02154Y02459D02*
D03*
X016378Y02748D02*
D03*
X017402D02*
D03*
M02*
