G04*
G04 #@! TF.GenerationSoftware,Altium Limited,Altium Designer,21.3.2 (30)*
G04*
G04 Layer_Color=8388736*
%FSTAX24Y24*%
%MOIN*%
G70*
G04*
G04 #@! TF.SameCoordinates,B2E6FB57-DAF8-471C-B04C-D09EA4292E56*
G04*
G04*
G04 #@! TF.FilePolarity,Negative*
G04*
G01*
G75*
%ADD21R,0.0749X0.0749*%
%ADD22R,0.0671X0.0710*%
%ADD23R,0.0710X0.0671*%
%ADD24R,0.0552X0.0671*%
%ADD25R,0.0671X0.0671*%
%ADD26R,0.0749X0.0749*%
%ADD27C,0.1655*%
%ADD28R,0.0867X0.1261*%
%ADD29O,0.0867X0.1261*%
%ADD30R,0.1261X0.1261*%
%ADD31O,0.1261X0.0789*%
%ADD32R,0.1261X0.0789*%
%ADD33O,0.1261X0.0789*%
%ADD34R,0.1261X0.0789*%
%ADD35O,0.1261X0.0867*%
%ADD36R,0.1261X0.0867*%
%ADD37O,0.0671X0.0867*%
%ADD38R,0.0671X0.0867*%
%ADD39C,0.0789*%
%ADD40C,0.1458*%
%ADD41R,0.1458X0.1458*%
%ADD42C,0.2245*%
%ADD43C,0.0356*%
%ADD44C,0.0513*%
D21*
X00498Y016693D02*
D03*
X003681D02*
D03*
X00498Y003228D02*
D03*
X003681D02*
D03*
X00498Y020059D02*
D03*
X003681D02*
D03*
X00498Y006595D02*
D03*
X003681D02*
D03*
X00498Y009961D02*
D03*
X003681D02*
D03*
X00498Y013327D02*
D03*
X003681D02*
D03*
D22*
X005011Y004901D02*
D03*
X00383D02*
D03*
X005011Y021732D02*
D03*
X00383D02*
D03*
X005011Y015D02*
D03*
X00383D02*
D03*
X005011Y018366D02*
D03*
X00383D02*
D03*
X005011Y008268D02*
D03*
X00383D02*
D03*
X005011Y011634D02*
D03*
X00383D02*
D03*
X005709Y024095D02*
D03*
X004528D02*
D03*
X008071Y026024D02*
D03*
X00689D02*
D03*
X008071Y024095D02*
D03*
X00689D02*
D03*
X00689Y027953D02*
D03*
X008071D02*
D03*
X005709Y026024D02*
D03*
X004528D02*
D03*
X006102Y031693D02*
D03*
X004921D02*
D03*
D23*
X012756Y02748D02*
D03*
Y026299D02*
D03*
X012186Y025197D02*
D03*
Y024016D02*
D03*
X019449Y030827D02*
D03*
Y032008D02*
D03*
X020827Y026299D02*
D03*
Y02748D02*
D03*
X020241Y024016D02*
D03*
Y025197D02*
D03*
X026181Y026299D02*
D03*
Y02748D02*
D03*
X023504Y026299D02*
D03*
Y02748D02*
D03*
X014871Y024016D02*
D03*
Y025197D02*
D03*
X017556Y024016D02*
D03*
Y025197D02*
D03*
X025611Y024016D02*
D03*
Y025197D02*
D03*
X022926Y024016D02*
D03*
Y025197D02*
D03*
X024291Y030827D02*
D03*
Y032008D02*
D03*
X012186Y030827D02*
D03*
Y032008D02*
D03*
X02187Y030827D02*
D03*
Y032008D02*
D03*
X017028Y030827D02*
D03*
Y032008D02*
D03*
X014607Y030827D02*
D03*
Y032008D02*
D03*
X01815Y02748D02*
D03*
Y026299D02*
D03*
X015472Y02748D02*
D03*
Y026299D02*
D03*
D24*
X012012Y028445D02*
D03*
X01276D02*
D03*
X020816D02*
D03*
X020068D02*
D03*
X025438D02*
D03*
X026186D02*
D03*
X022753D02*
D03*
X023501D02*
D03*
X018131D02*
D03*
X017383D02*
D03*
X015446D02*
D03*
X014697D02*
D03*
D25*
X012386Y029429D02*
D03*
X020442D02*
D03*
X025812D02*
D03*
X023127D02*
D03*
X017757D02*
D03*
X015072D02*
D03*
X007752Y029736D02*
D03*
D26*
X023898Y013406D02*
D03*
Y014705D02*
D03*
D27*
X02576Y021666D02*
D03*
X01676D02*
D03*
D28*
X02576Y016666D02*
D03*
D29*
X02476D02*
D03*
X02376D02*
D03*
X02276D02*
D03*
X02176D02*
D03*
X01676D02*
D03*
X01776D02*
D03*
X01876D02*
D03*
X01976D02*
D03*
X02076D02*
D03*
D30*
X023541Y000903D02*
D03*
Y011927D02*
D03*
X018423Y000903D02*
D03*
Y011927D02*
D03*
D31*
X013386Y002283D02*
D03*
Y003283D02*
D03*
Y004283D02*
D03*
Y005283D02*
D03*
Y006283D02*
D03*
Y007283D02*
D03*
Y008283D02*
D03*
Y009283D02*
D03*
Y010283D02*
D03*
Y011283D02*
D03*
Y012283D02*
D03*
Y013283D02*
D03*
Y014283D02*
D03*
Y015283D02*
D03*
Y016283D02*
D03*
Y017283D02*
D03*
Y018283D02*
D03*
Y019283D02*
D03*
Y020283D02*
D03*
Y021283D02*
D03*
X007386Y002283D02*
D03*
Y003283D02*
D03*
Y004283D02*
D03*
Y005283D02*
D03*
Y006283D02*
D03*
Y007283D02*
D03*
Y008283D02*
D03*
Y009283D02*
D03*
Y010283D02*
D03*
Y011283D02*
D03*
Y012283D02*
D03*
Y013283D02*
D03*
Y014283D02*
D03*
Y015283D02*
D03*
Y016283D02*
D03*
Y017283D02*
D03*
Y018283D02*
D03*
Y019283D02*
D03*
Y020283D02*
D03*
X002874Y024843D02*
D03*
Y025843D02*
D03*
X002795Y028937D02*
D03*
D32*
X007386Y021283D02*
D03*
X002874Y023843D02*
D03*
X002795Y027937D02*
D03*
D33*
X001575Y007232D02*
D03*
Y003882D02*
D03*
Y013931D02*
D03*
Y02063D02*
D03*
Y01728D02*
D03*
Y010581D02*
D03*
X016142Y014449D02*
D03*
Y013449D02*
D03*
Y012449D02*
D03*
Y010449D02*
D03*
Y009449D02*
D03*
Y008449D02*
D03*
Y007449D02*
D03*
Y006449D02*
D03*
Y005449D02*
D03*
Y004449D02*
D03*
Y003449D02*
D03*
Y002449D02*
D03*
D34*
X001575Y008231D02*
D03*
Y004882D02*
D03*
Y014931D02*
D03*
Y02163D02*
D03*
Y01828D02*
D03*
Y011581D02*
D03*
X016142Y001449D02*
D03*
D35*
X009646Y024787D02*
D03*
Y026787D02*
D03*
Y025787D02*
D03*
X025787Y013449D02*
D03*
X016142Y011449D02*
D03*
D36*
X009646Y027787D02*
D03*
X025787Y014449D02*
D03*
D37*
X004512Y029724D02*
D03*
X005512D02*
D03*
D38*
X006512D02*
D03*
D39*
X007752Y032862D02*
D03*
X008752D02*
D03*
X009752D02*
D03*
X010752D02*
D03*
Y029736D02*
D03*
X009752D02*
D03*
X008752D02*
D03*
D40*
X025472Y004671D02*
D03*
Y006661D02*
D03*
Y008661D02*
D03*
D41*
X025452Y010661D02*
D03*
D42*
X001575Y03189D02*
D03*
X025984Y001575D02*
D03*
Y03189D02*
D03*
X001575Y001575D02*
D03*
D43*
X014449Y010669D02*
D03*
X02199Y02046D02*
D03*
X022071Y023346D02*
D03*
X010236Y032008D02*
D03*
D44*
X01373Y02833D02*
D03*
X02154Y02459D02*
D03*
X016378Y02748D02*
D03*
X017402D02*
D03*
M02*
