G04*
G04 #@! TF.GenerationSoftware,Altium Limited,Altium Designer,21.3.2 (30)*
G04*
G04 Layer_Color=255*
%FSTAX24Y24*%
%MOIN*%
G70*
G04*
G04 #@! TF.SameCoordinates,B2E6FB57-DAF8-471C-B04C-D09EA4292E56*
G04*
G04*
G04 #@! TF.FilePolarity,Positive*
G04*
G01*
G75*
%ADD15R,0.0669X0.0669*%
%ADD16R,0.0591X0.0630*%
%ADD17R,0.0630X0.0591*%
%ADD18R,0.0472X0.0591*%
%ADD19R,0.0591X0.0591*%
%ADD20R,0.0669X0.0669*%
%ADD48C,0.1575*%
%ADD49R,0.0787X0.1181*%
%ADD50O,0.0787X0.1181*%
%ADD51R,0.1181X0.1181*%
%ADD52O,0.1181X0.0709*%
%ADD53R,0.1181X0.0709*%
%ADD54O,0.1181X0.0709*%
%ADD55R,0.1181X0.0709*%
%ADD56O,0.1181X0.0787*%
%ADD57R,0.1181X0.0787*%
%ADD58O,0.0591X0.0787*%
%ADD59R,0.0591X0.0787*%
%ADD60C,0.0709*%
%ADD61C,0.1378*%
%ADD62R,0.1378X0.1378*%
%ADD63C,0.2165*%
D15*
X00498Y016693D02*
D03*
X003681D02*
D03*
X00498Y003228D02*
D03*
X003681D02*
D03*
X00498Y020059D02*
D03*
X003681D02*
D03*
X00498Y006595D02*
D03*
X003681D02*
D03*
X00498Y009961D02*
D03*
X003681D02*
D03*
X00498Y013327D02*
D03*
X003681D02*
D03*
D16*
X005011Y004901D02*
D03*
X00383D02*
D03*
X005011Y021732D02*
D03*
X00383D02*
D03*
X005011Y015D02*
D03*
X00383D02*
D03*
X005011Y018366D02*
D03*
X00383D02*
D03*
X005011Y008268D02*
D03*
X00383D02*
D03*
X005011Y011634D02*
D03*
X00383D02*
D03*
X005709Y024095D02*
D03*
X004528D02*
D03*
X008071Y026024D02*
D03*
X00689D02*
D03*
X008071Y024095D02*
D03*
X00689D02*
D03*
X00689Y027953D02*
D03*
X008071D02*
D03*
X005709Y026024D02*
D03*
X004528D02*
D03*
X006102Y031693D02*
D03*
X004921D02*
D03*
D17*
X012756Y02748D02*
D03*
Y026299D02*
D03*
X012186Y025197D02*
D03*
Y024016D02*
D03*
X019449Y030827D02*
D03*
Y032008D02*
D03*
X020827Y026299D02*
D03*
Y02748D02*
D03*
X020241Y024016D02*
D03*
Y025197D02*
D03*
X026181Y026299D02*
D03*
Y02748D02*
D03*
X023504Y026299D02*
D03*
Y02748D02*
D03*
X014871Y024016D02*
D03*
Y025197D02*
D03*
X017556Y024016D02*
D03*
Y025197D02*
D03*
X025611Y024016D02*
D03*
Y025197D02*
D03*
X022926Y024016D02*
D03*
Y025197D02*
D03*
X024291Y030827D02*
D03*
Y032008D02*
D03*
X012186Y030827D02*
D03*
Y032008D02*
D03*
X02187Y030827D02*
D03*
Y032008D02*
D03*
X017028Y030827D02*
D03*
Y032008D02*
D03*
X014607Y030827D02*
D03*
Y032008D02*
D03*
X01815Y02748D02*
D03*
Y026299D02*
D03*
X015472Y02748D02*
D03*
Y026299D02*
D03*
D18*
X012012Y028445D02*
D03*
X01276D02*
D03*
X020816D02*
D03*
X020068D02*
D03*
X025438D02*
D03*
X026186D02*
D03*
X022753D02*
D03*
X023501D02*
D03*
X018131D02*
D03*
X017383D02*
D03*
X015446D02*
D03*
X014697D02*
D03*
D19*
X012386Y029429D02*
D03*
X020442D02*
D03*
X025812D02*
D03*
X023127D02*
D03*
X017757D02*
D03*
X015072D02*
D03*
X007752Y029736D02*
D03*
D20*
X023898Y013406D02*
D03*
Y014705D02*
D03*
D48*
X02576Y021666D02*
D03*
X01676D02*
D03*
D49*
X02576Y016666D02*
D03*
D50*
X02476D02*
D03*
X02376D02*
D03*
X02276D02*
D03*
X02176D02*
D03*
X01676D02*
D03*
X01776D02*
D03*
X01876D02*
D03*
X01976D02*
D03*
X02076D02*
D03*
D51*
X023541Y000903D02*
D03*
Y011927D02*
D03*
X018423Y000903D02*
D03*
Y011927D02*
D03*
D52*
X013386Y002283D02*
D03*
Y003283D02*
D03*
Y004283D02*
D03*
Y005283D02*
D03*
Y006283D02*
D03*
Y007283D02*
D03*
Y008283D02*
D03*
Y009283D02*
D03*
Y010283D02*
D03*
Y011283D02*
D03*
Y012283D02*
D03*
Y013283D02*
D03*
Y014283D02*
D03*
Y015283D02*
D03*
Y016283D02*
D03*
Y017283D02*
D03*
Y018283D02*
D03*
Y019283D02*
D03*
Y020283D02*
D03*
Y021283D02*
D03*
X007386Y002283D02*
D03*
Y003283D02*
D03*
Y004283D02*
D03*
Y005283D02*
D03*
Y006283D02*
D03*
Y007283D02*
D03*
Y008283D02*
D03*
Y009283D02*
D03*
Y010283D02*
D03*
Y011283D02*
D03*
Y012283D02*
D03*
Y013283D02*
D03*
Y014283D02*
D03*
Y015283D02*
D03*
Y016283D02*
D03*
Y017283D02*
D03*
Y018283D02*
D03*
Y019283D02*
D03*
Y020283D02*
D03*
X002874Y024843D02*
D03*
Y025843D02*
D03*
X002795Y028937D02*
D03*
D53*
X007386Y021283D02*
D03*
X002874Y023843D02*
D03*
X002795Y027937D02*
D03*
D54*
X001575Y007232D02*
D03*
Y003882D02*
D03*
Y013931D02*
D03*
Y02063D02*
D03*
Y01728D02*
D03*
Y010581D02*
D03*
X016142Y014449D02*
D03*
Y013449D02*
D03*
Y012449D02*
D03*
Y010449D02*
D03*
Y009449D02*
D03*
Y008449D02*
D03*
Y007449D02*
D03*
Y006449D02*
D03*
Y005449D02*
D03*
Y004449D02*
D03*
Y003449D02*
D03*
Y002449D02*
D03*
D55*
X001575Y008231D02*
D03*
Y004882D02*
D03*
Y014931D02*
D03*
Y02163D02*
D03*
Y01828D02*
D03*
Y011581D02*
D03*
X016142Y001449D02*
D03*
D56*
X009646Y024787D02*
D03*
Y026787D02*
D03*
Y025787D02*
D03*
X025787Y013449D02*
D03*
X016142Y011449D02*
D03*
D57*
X009646Y027787D02*
D03*
X025787Y014449D02*
D03*
D58*
X004512Y029724D02*
D03*
X005512D02*
D03*
D59*
X006512D02*
D03*
D60*
X007752Y032862D02*
D03*
X008752D02*
D03*
X009752D02*
D03*
X010752D02*
D03*
Y029736D02*
D03*
X009752D02*
D03*
X008752D02*
D03*
D61*
X025472Y004671D02*
D03*
Y006661D02*
D03*
Y008661D02*
D03*
D62*
X025452Y010661D02*
D03*
D63*
X001575Y03189D02*
D03*
X025984Y001575D02*
D03*
Y03189D02*
D03*
X001575Y001575D02*
D03*
M02*
